<?xml version="1.0" encoding="utf-8"?>
<!-- Generator: Adobe Illustrator 27.0.0, SVG Export Plug-In . SVG Version: 6.00 Build 0)  -->
<svg version="1.1" id="UI" xmlns="http://www.w3.org/2000/svg" xmlns:xlink="http://www.w3.org/1999/xlink" x="0px" y="0px"
	 viewBox="0 0 75.5 85.5" style="enable-background:new 0 0 75.5 85.5;" xml:space="preserve">
<style type="text/css">
	.st0{fill:#D19D71;}
	.st1{fill:#D9AE88;}
	.st2{fill:#E2C1A3;}
	.st3{fill:none;stroke:#EEDCCB;stroke-width:2;stroke-miterlimit:10;}
	.st4{fill:#EFEA41;}
	.st5{font-family:'DelightCandles';}
	.st6{font-size:66px;}
	.st7{fill:none;stroke:#231F20;stroke-width:2;stroke-miterlimit:10;}
</style>
<g id="Buttons">
	<g id="Speed">
		<g id="__Inactive_copy">
			<path class="st0" d="M64.8,2.4C52.7-2.9,36.6,5.8,25.5,13.8C14.2,21.9,5.9,33.6,2.8,47.2c-2.9,12.3-1.6,26.5,15,33.9
				c24,10.6,40.5-8.5,47.9-19.9c2.9-4.5,5-9.4,6.3-14.6C75.1,34.2,79.4,8.9,64.8,2.4z"/>
			<path class="st1" d="M72.2,10.1c0,0-17.9,80.4-69.6,53.5C2.2,61-4,46.6,17.3,21.8C43.9-3.1,65.1-2.6,72.2,10.1z"/>
			<path class="st2" d="M55.1,8.3c-1.8-2.1-7.8-0.5-11.2,1.2c-4,2.1-6.1,5.8-5.6,8.1c0.7,3.1,7.7,3.7,12.5,0.7
				C55.7,15.3,56.9,10.4,55.1,8.3z"/>
			<path class="st3" d="M64.1,2.7C52-2.6,35.9,6.1,24.8,14.1C13.5,22.2,5.2,33.9,2.1,47.5C-0.7,59.9,0.6,74,17.2,81.4
				C41.1,92,57.7,73,65,61.5c2.9-4.5,5-9.4,6.3-14.6C74.4,34.5,78.7,9.2,64.1,2.7z"/>
			<text transform="matrix(1 0 0 1 10.7587 64.4352)" class="st4 st5 st6">&gt;&gt;</text>
			<text transform="matrix(1 0 0 1 10.7587 64.4352)" class="st7 st5 st6">&gt;&gt;</text>
		</g>
	</g>
</g>
</svg>
