<?xml version="1.0" encoding="utf-8"?>
<!-- Generator: Adobe Illustrator 27.0.0, SVG Export Plug-In . SVG Version: 6.00 Build 0)  -->
<svg version="1.1" id="UI" xmlns="http://www.w3.org/2000/svg" xmlns:xlink="http://www.w3.org/1999/xlink" x="0px" y="0px"
	 viewBox="0 0 77.7 85.6" style="enable-background:new 0 0 77.7 85.6;" xml:space="preserve">
<style type="text/css">
	.st0{fill:#D19D71;}
	.st1{fill:#D9AE88;}
	.st2{fill:#E2C1A3;}
	.st3{fill:none;stroke:#EEDCCB;stroke-width:2;stroke-miterlimit:10;}
	.st4{fill:#ED1C2B;}
	.st5{font-family:'DelightCandles';}
	.st6{font-size:66px;}
	.st7{fill:none;stroke:#231F20;stroke-width:2;stroke-miterlimit:10;}
</style>
<g id="Buttons">
	<g id="Speed">
		<g id="__Inactive">
			<path class="st0" d="M65.9,2.5c-12-5.3-28.2,3.4-39.3,11.4C15.3,22,7,33.7,3.9,47.3C1,59.6,2.4,73.8,19,81.2
				c23.9,10.6,40.5-8.4,47.8-19.9c2.9-4.5,5-9.4,6.3-14.6C76.2,34.3,80.5,9,65.9,2.5z"/>
			<path class="st1" d="M73.3,10c0,0-17.9,80.7-69.6,53.7c-0.4-2.6-6.6-17,14.7-41.8C45-3,66.2-2.8,73.3,10z"/>
			<path class="st2" d="M56.2,8.4C54.4,6.3,48.4,7.9,45,9.6c-4,2.1-6.1,5.8-5.6,8.1c0.7,3.1,7.7,3.7,12.5,0.7
				C56.8,15.4,58,10.5,56.2,8.4z"/>
			<path class="st3" d="M65.2,2.9C53.2-2.5,37,6.2,25.9,14.2C14.6,22.3,6.3,34.1,3.2,47.6C0.3,60,1.7,74.1,18.3,81.5
				c23.9,10.6,40.4-8.4,47.8-19.9c2.9-4.5,5-9.4,6.3-14.6C75.5,34.7,79.8,9.3,65.2,2.9z"/>
			<text transform="matrix(1 0 0 1 0.4862 64.566)" class="st4 st5 st6">&gt;&gt;&gt;</text>
			<text transform="matrix(1 0 0 1 0.4862 64.566)" class="st7 st5 st6">&gt;&gt;&gt;</text>
		</g>
	</g>
</g>
</svg>
