<?xml version="1.0" encoding="utf-8"?>
<!-- Generator: Adobe Illustrator 27.0.0, SVG Export Plug-In . SVG Version: 6.00 Build 0)  -->
<svg version="1.1" id="UI" xmlns="http://www.w3.org/2000/svg" xmlns:xlink="http://www.w3.org/1999/xlink" x="0px" y="0px"
	 viewBox="0 0 75.4 86.1" style="enable-background:new 0 0 75.4 86.1;" xml:space="preserve">
<style type="text/css">
	.st0{fill:#D19D71;}
	.st1{fill:#D9AE88;}
	.st2{fill:#E2C1A3;}
	.st3{fill:none;stroke:#EEDCCB;stroke-width:2;stroke-miterlimit:10;}
	.st4{fill:#7EC242;}
	.st5{font-family:'DelightCandles';}
	.st6{font-size:66px;}
	.st7{fill:none;stroke:#231F20;stroke-width:2;stroke-miterlimit:10;}
</style>
<g id="Buttons">
	<g id="Speed">
		<g id="__Inactive_copy">
			<path class="st0" d="M64.9,3C52.8-2.3,36.7,6.4,25.5,14.4C14.2,22.5,6,34.3,2.9,47.8C0,60.1,1.3,74.3,17.9,81.7
				c23.9,10.6,40.5-8.4,47.9-19.9c2.9-4.5,5-9.4,6.3-14.6C75.1,34.8,79.5,9.5,64.9,3z"/>
			<path class="st1" d="M72.2,10.5c0,0-17.8,80.7-69.6,53.7c-0.4-2.6-6.6-17,14.7-41.8C44-2.5,65.2-2.3,72.2,10.5z"/>
			<path class="st2" d="M55.2,8.9c-1.8-2.1-7.9-0.5-11.3,1.3c-4,2.1-6.1,5.8-5.6,8.1C39,21.4,46,22,50.8,19
				C55.8,15.9,57,11,55.2,8.9z"/>
			<path class="st3" d="M64.2,3.4C52.1-2,36,6.8,24.8,14.7C13.5,22.8,5.3,34.6,2.2,48.1C-0.6,60.5,0.7,74.6,17.3,82
				c23.9,10.6,40.5-8.4,47.8-19.9c2.9-4.5,5-9.4,6.3-14.6C74.4,35.2,78.8,9.8,64.2,3.4z"/>
			<text transform="matrix(1 0 0 1 23.5762 65.0548)" class="st4 st5 st6">&gt;</text>
			<text transform="matrix(1 0 0 1 23.5762 65.0548)" class="st7 st5 st6">&gt;</text>
		</g>
	</g>
</g>
</svg>
