<?xml version="1.0" encoding="utf-8"?>
<!-- Generator: Adobe Illustrator 27.0.0, SVG Export Plug-In . SVG Version: 6.00 Build 0)  -->
<svg version="1.1" id="UI" xmlns="http://www.w3.org/2000/svg" xmlns:xlink="http://www.w3.org/1999/xlink" x="0px" y="0px"
	 viewBox="0 0 118.3 85.8" style="enable-background:new 0 0 118.3 85.8;" xml:space="preserve">
<style type="text/css">
	.st0{fill:#D19D71;}
	.st1{fill:#D9AE88;}
	.st2{fill:#E2C1A3;}
	.st3{fill:none;stroke:#EEDCCB;stroke-width:2;stroke-miterlimit:10;}
	.st4{fill:#F79461;}
	.st5{font-family:'DelightCandles';}
	.st6{font-size:46px;}
	.st7{letter-spacing:-1;}
	.st8{fill:none;stroke:#FFFFFF;stroke-width:2;stroke-miterlimit:10;}
</style>
<g id="Buttons">
	<g id="Start">
		<g id="Start_Active">
			<path class="st0" d="M86.1,2.6C74-2.8,57.9,6,46.8,13.9C35.5,22,27.2,33.8,24.1,47.3c-2.9,12.4-1.6,26.6,15,33.9
				c24,10.6,40.5-8.4,47.9-19.9c2.9-4.5,5-9.4,6.3-14.6C96.4,34.4,100.7,9,86.1,2.6z"/>
			<path class="st1" d="M93.5,10c0,0-17.9,80.7-69.6,53.7c-0.4-2.6-6.6-17,14.7-41.8C65.2-3,86.4-2.8,93.5,10z"/>
			<path class="st2" d="M76.4,8.5c-1.8-2.1-7.9-0.6-11.2,1.2c-4,2.1-6.1,5.8-5.6,8.1c0.7,3.1,7.7,3.7,12.5,0.7
				C77,15.5,78.2,10.5,76.4,8.5z"/>
			<path class="st3" d="M85.4,2.9c-12-5.4-28.2,3.4-39.3,11.4c-11.3,8.1-19.6,19.8-22.7,33.4c-2.8,12.4-1.5,26.5,15.1,33.9
				C62.4,92.2,79,73.2,86.3,61.7c2.9-4.5,5-9.4,6.3-14.6C95.7,34.7,100,9.3,85.4,2.9z"/>
			<text transform="matrix(1 0 0 1 -0.1926 57.7788)" class="st4 st5 st6 st7">S</text>
			<text transform="matrix(1 0 0 1 -0.1926 57.7788)" class="st8 st5 st6 st7">S</text>
			<text transform="matrix(1 0 0 1 28.1082 57.7788)" class="st4 st5 st6 st7">t</text>
			<text transform="matrix(1 0 0 1 28.1082 57.7788)" class="st8 st5 st6 st7">t</text>
			<text transform="matrix(1 0 0 1 43.404 57.7788)" class="st4 st5 st6">a</text>
			<text transform="matrix(1 0 0 1 43.404 57.7788)" class="st8 st5 st6">a</text>
			<text transform="matrix(1 0 0 1 68.4255 57.7788)" class="st4 st5 st6">r</text>
			<text transform="matrix(1 0 0 1 68.4255 57.7788)" class="st8 st5 st6">r</text>
			<text transform="matrix(1 0 0 1 97.4451 57.7788)" class="st4 st5 st6">t</text>
			<text transform="matrix(1 0 0 1 97.4451 57.7788)" class="st8 st5 st6">t</text>
		</g>
	</g>
</g>
</svg>
