<?xml version="1.0" encoding="utf-8"?>
<!-- Generator: Adobe Illustrator 27.0.0, SVG Export Plug-In . SVG Version: 6.00 Build 0)  -->
<svg version="1.1" id="UI" xmlns="http://www.w3.org/2000/svg" xmlns:xlink="http://www.w3.org/1999/xlink" x="0px" y="0px"
	 viewBox="0 0 118.6 85.6" style="enable-background:new 0 0 118.6 85.6;" xml:space="preserve">
<style type="text/css">
	.st0{fill:#D19D71;}
	.st1{fill:#D9AE88;}
	.st2{fill:#E2C1A3;}
	.st3{fill:none;stroke:#EEDCCB;stroke-width:2;stroke-miterlimit:10;}
	.st4{fill:#FBDEAA;}
	.st5{font-family:'DelightCandles';}
	.st6{font-size:46px;}
	.st7{letter-spacing:-1;}
	.st8{fill:none;stroke:#F7974E;stroke-width:2;stroke-miterlimit:10;}
</style>
<g id="Buttons">
	<g id="Start">
		<g id="Start_Inactive">
			<path class="st0" d="M86.3,2.5C74.3-2.9,58.1,5.9,47,13.8c-11.3,8.1-19.6,19.8-22.7,33.4c-2.8,12.4-1.5,26.6,15.1,33.9
				c23.9,10.6,40.5-8.4,47.8-19.9c2.9-4.5,5-9.4,6.3-14.6C96.6,34.3,100.9,8.9,86.3,2.5z"/>
			<path class="st1" d="M93.7,9.9c0,0-17.9,80.7-69.6,53.7c-0.4-2.6-6.6-17,14.7-41.8C65.4-3.1,86.6-2.9,93.7,9.9z"/>
			<path class="st2" d="M76.6,8.4c-1.8-2.1-7.8-0.6-11.2,1.2c-4,2.1-6.1,5.8-5.6,8.1c0.7,3.1,7.7,3.7,12.5,0.7
				C77.2,15.4,78.4,10.4,76.6,8.4z"/>
			<path class="st3" d="M85.6,2.8c-12-5.4-28.2,3.4-39.3,11.3C35,22.2,26.7,34,23.6,47.5C20.8,59.9,22.1,74,38.7,81.4
				C62.6,92,79.1,73,86.5,61.5c2.9-4.5,5-9.4,6.3-14.6C95.9,34.6,100.2,9.2,85.6,2.8z"/>
			<text transform="matrix(1 0 0 1 1.678467e-04 57.7221)" class="st4 st5 st6 st7">S</text>
			<text transform="matrix(1 0 0 1 1.678467e-04 57.7221)" class="st8 st5 st6 st7">S</text>
			<text transform="matrix(1 0 0 1 28.301 57.7221)" class="st4 st5 st6 st7">t</text>
			<text transform="matrix(1 0 0 1 28.301 57.7221)" class="st8 st5 st6 st7">t</text>
			<text transform="matrix(1 0 0 1 43.5969 57.7221)" class="st4 st5 st6">a</text>
			<text transform="matrix(1 0 0 1 43.5969 57.7221)" class="st8 st5 st6">a</text>
			<text transform="matrix(1 0 0 1 68.6184 57.7221)" class="st4 st5 st6">r</text>
			<text transform="matrix(1 0 0 1 68.6184 57.7221)" class="st8 st5 st6">r</text>
			<text transform="matrix(1 0 0 1 97.6379 57.7221)" class="st4 st5 st6">t</text>
			<text transform="matrix(1 0 0 1 97.6379 57.7221)" class="st8 st5 st6">t</text>
		</g>
	</g>
</g>
</svg>
