<?xml version="1.0" encoding="UTF-8" standalone="no" ?>
<!DOCTYPE svg PUBLIC "-//W3C//DTD SVG 1.1//EN" "http://www.w3.org/Graphics/SVG/1.1/DTD/svg11.dtd">
<svg xmlns="http://www.w3.org/2000/svg" xmlns:xlink="http://www.w3.org/1999/xlink" version="1.1" width="128" height="128" viewBox="0 0 128 128" xml:space="preserve">
<g transform="matrix(0.42 0 0 0.42 92.98 38.11)" id="dFYaP0Pqej07gy5kU1gEd"  >
<path style="stroke: rgb(0,0,0); stroke-width: 0; stroke-dasharray: none; stroke-linecap: butt; stroke-dashoffset: 0; stroke-linejoin: miter; stroke-miterlimit: 4; fill: rgb(69,69,69); fill-rule: nonzero; opacity: 1;" vector-effect="non-scaling-stroke"  transform=" translate(0, 0)" d="M -16.01265 -7.94616 C -2.451930000000001 -14.06502 30.953760000000003 3.960820000000001 18.05453 5.94531 C 5.15531 7.92981 -23.78526 13.387170000000001 -17.0049 3.2993200000000003 C -10.22454 -6.788539999999999 -29.57338 -1.82729 -16.01265 -7.946160000000001 z" stroke-linecap="round" />
</g>
<g transform="matrix(1 0 0 1 37.24 100.24)" id="ukQf6ODfFBun7V6D2dBDo"  >
<path style="stroke: rgb(0,0,0); stroke-width: 0; stroke-dasharray: none; stroke-linecap: butt; stroke-dashoffset: 0; stroke-linejoin: miter; stroke-miterlimit: 4; fill: rgb(157,157,157); fill-rule: nonzero; opacity: 1;" vector-effect="non-scaling-stroke"  transform=" translate(0, 0)" d="M -21.61443 4.02916 C -17.31469 -15.1543 18.075490000000002 -26.39978 22.54061 -13.996679999999998 C 27.00573 -1.5935799999999976 9.14526 26.520120000000006 -6.39996 17.42451 C -21.94518 8.3289 -25.91417 23.21262 -21.61443 4.029160000000001 z" stroke-linecap="round" />
</g>
<g transform="matrix(1 0 0 1 85.21 68.21)" id="mBzVPBULEJl7c2bHk1MF0"  >
<path style="stroke: rgb(0,0,0); stroke-width: 0; stroke-dasharray: none; stroke-linecap: butt; stroke-dashoffset: 0; stroke-linejoin: miter; stroke-miterlimit: 4; fill: rgb(97,97,97); fill-rule: nonzero; opacity: 1;" vector-effect="non-scaling-stroke"  transform=" translate(0, 0)" d="M -9.02847 0 C -1.5866100000000003 -9.92248 11.31262 -7.60724 10.320369999999999 0 C 9.328119999999998 7.60724 -16.470330000000004 9.92248 -9.02847 0 z" stroke-linecap="round" />
</g>
<g transform="matrix(1 0 0 1 38.2 27.81)" id="LZmgMZ5h1vGPjH3iPQ5Jr"  >
<path style="stroke: rgb(0,0,0); stroke-width: 0; stroke-dasharray: none; stroke-linecap: butt; stroke-dashoffset: 0; stroke-linejoin: miter; stroke-miterlimit: 4; fill: rgb(219,219,219); fill-rule: nonzero; opacity: 1;" vector-effect="non-scaling-stroke"  transform=" translate(0, 0)" d="M -18.2724 -9.20964 C -18.2724 -1.10628 -13.724600000000002 20.39243 -6.1173600000000015 14.76969 C 1.4898799999999985 9.14695 28.694009999999995 -18.305249999999997 13.975659999999998 -15.49388 C -0.7426900000000014 -12.68251 -18.272400000000005 -17.313000000000002 -18.272400000000005 -9.20964 z" stroke-linecap="round" />
</g>
</svg>