<?xml version="1.0" encoding="UTF-8" standalone="no" ?>
<!DOCTYPE svg PUBLIC "-//W3C//DTD SVG 1.1//EN" "http://www.w3.org/Graphics/SVG/1.1/DTD/svg11.dtd">
<svg xmlns="http://www.w3.org/2000/svg" xmlns:xlink="http://www.w3.org/1999/xlink" version="1.1" width="128" height="128" viewBox="0 0 128 128" xml:space="preserve">
<g transform="matrix(0.48 0 0 0.48 62.59 29.91)" id="t5iKNqz2sHbJuY2Ty6nrG"  >
<path style="stroke: rgb(0,0,0); stroke-width: 0; stroke-dasharray: none; stroke-linecap: butt; stroke-dashoffset: 0; stroke-linejoin: miter; stroke-miterlimit: 4; fill: rgb(196,196,196); fill-rule: nonzero; opacity: 1;" vector-effect="non-scaling-stroke"  transform=" translate(0, 0)" d="M -17.53941 -9.17199 C -8.65511 -18.46951 19.23745 -15.370339999999999 20.477120000000003 -9.17199 C 21.716790000000003 -2.9736399999999996 1.468860000000003 27.39826 -5.969159999999999 9.423050000000002 C -13.407179999999999 -8.552159999999999 -26.42371 0.12553000000000125 -17.539409999999997 -9.17199 z" stroke-linecap="round" />
</g>
<g transform="matrix(1 0 0 1 25.13 29.91)" id="hVQC74_n3ogBBquqi9azy"  >
<path style="stroke: rgb(0,0,0); stroke-width: 0; stroke-dasharray: none; stroke-linecap: butt; stroke-dashoffset: 0; stroke-linejoin: miter; stroke-miterlimit: 4; fill: rgb(125,125,125); fill-rule: nonzero; opacity: 1;" vector-effect="non-scaling-stroke"  transform=" translate(0, 0)" d="M -16.65612 -0.34978 C -15.003230000000002 12.460139999999999 -6.5321500000000015 18.65848 7.104209999999998 19.07171 C 20.740569999999998 19.48493 19.294289999999997 -28.242340000000002 7.104209999999998 -17.498540000000002 C -5.085870000000002 -6.754740000000002 -18.30901 -13.1597 -16.65612 -0.34978000000000264 z" stroke-linecap="round" />
</g>
<g transform="matrix(0.62 0 0 0.62 47.06 95.88)" id="3hvZDcgaL164vJPgOmIpm"  >
<path style="stroke: rgb(0,0,0); stroke-width: 0; stroke-dasharray: none; stroke-linecap: butt; stroke-dashoffset: 0; stroke-linejoin: miter; stroke-miterlimit: 4; fill: rgb(69,69,69); fill-rule: nonzero; opacity: 1;" vector-effect="non-scaling-stroke"  transform=" translate(0, 0)" d="M -14.61615 15.10647 C 5.631780000000001 26.88333 44.47476 -0.3894000000000002 26.086330000000004 -10.92659 C 7.697900000000004 -21.46378 -39.61614999999999 -21.25717 -29.492179999999998 -3.281959999999999 C -19.368209999999998 14.693250000000003 -34.86408 3.3296100000000015 -14.616149999999998 15.106470000000002 z" stroke-linecap="round" />
</g>
<g transform="matrix(0.75 0 0 0.75 100.21 64.96)" id="EuSVWqYI518EHfg2_cN8h"  >
<path style="stroke: rgb(0,0,0); stroke-width: 0; stroke-dasharray: none; stroke-linecap: butt; stroke-dashoffset: 0; stroke-linejoin: miter; stroke-miterlimit: 4; fill: rgb(157,157,157); fill-rule: nonzero; opacity: 1;" vector-effect="non-scaling-stroke"  transform=" translate(0, 0)" d="M -20.04161 15.57376 C -6.818469999999998 23.83822 19.4212 16.81343 14.669130000000003 7.102690000000001 C 9.917060000000003 -2.6080499999999986 15.702190000000003 -9.01301 20.247640000000004 -7.153509999999999 C 24.793090000000003 -5.294009999999999 27.272430000000004 -26.368389999999998 10.330280000000004 -16.65764 C -6.611869999999998 -6.946900000000001 -33.264759999999995 7.3093 -20.041619999999995 15.57376 z" stroke-linecap="round" />
</g>
</svg>