<?xml version="1.0" encoding="UTF-8" standalone="no" ?>
<!DOCTYPE svg PUBLIC "-//W3C//DTD SVG 1.1//EN" "http://www.w3.org/Graphics/SVG/1.1/DTD/svg11.dtd">
<svg xmlns="http://www.w3.org/2000/svg" xmlns:xlink="http://www.w3.org/1999/xlink" version="1.1" width="128" height="128" viewBox="0 0 128 128" xml:space="preserve">
<g transform="matrix(1 0 0 1 82.07 46.8)" id="tIZJ5Uac4A-kffQ_UnheR"  >
<path style="stroke: rgb(0,0,0); stroke-width: 0; stroke-dasharray: none; stroke-linecap: butt; stroke-dashoffset: 0; stroke-linejoin: miter; stroke-miterlimit: 4; fill: rgb(208,208,208); fill-rule: nonzero; opacity: 1;" vector-effect="non-scaling-stroke"  transform=" translate(0, 0)" d="M -19.62854 -7.87834 C -14.33655 10.809 20.06138 22.550600000000003 20.06138 9.32063 C 20.06138 -3.9093400000000003 -24.92053 -26.565669999999997 -19.62854 -7.87834 z" stroke-linecap="round" />
</g>
<g transform="matrix(1 0 0 1 35.31 97.31)" id="8oYN7jWuaK43qyWOzgmld"  >
<path style="stroke: rgb(0,0,0); stroke-width: 0; stroke-dasharray: none; stroke-linecap: butt; stroke-dashoffset: 0; stroke-linejoin: miter; stroke-miterlimit: 4; fill: rgb(69,69,69); fill-rule: nonzero; opacity: 1;" vector-effect="non-scaling-stroke"  transform=" translate(0, 0)" d="M -7.07364 -20.21193 C 18.39406 -20.04656 29.804909999999996 15.64124 17.89794 15.806610000000003 C 5.990959999999998 15.971980000000002 -19.642110000000002 28.044340000000005 -19.31136 11.506870000000003 C -18.980610000000002 -5.030599999999996 -32.54133 -20.377299999999998 -7.07363 -20.21193 z" stroke-linecap="round" />
</g>
<g transform="matrix(0.55 0 0 0.55 97.05 97.31)" id="JJb_DmKs55b7pq2bsigQE"  >
<path style="stroke: rgb(0,0,0); stroke-width: 0; stroke-dasharray: none; stroke-linecap: butt; stroke-dashoffset: 0; stroke-linejoin: miter; stroke-miterlimit: 4; fill: rgb(104,104,104); fill-rule: nonzero; opacity: 1;" vector-effect="non-scaling-stroke"  transform=" translate(0, 0)" d="M -8.81722 -16.60547 C 13.17761 -15.61322 31.5342 17.296339999999997 11.193119999999999 16.63484 C -9.147970000000003 15.97334 2.759009999999998 -4.036989999999999 -6.17122 -1.7217500000000001 C -15.10145 0.5934999999999997 -30.81205 -17.597720000000002 -8.81721 -16.60547 z" stroke-linecap="round" />
</g>
<g transform="matrix(0.53 0 0 0.53 18.28 23.62)" id="_irQ-pODetAf66GG_9xmP"  >
<path style="stroke: rgb(0,0,0); stroke-width: 0; stroke-dasharray: none; stroke-linecap: butt; stroke-dashoffset: 0; stroke-linejoin: miter; stroke-miterlimit: 4; fill: rgb(37,37,37); fill-rule: nonzero; opacity: 1;" vector-effect="non-scaling-stroke"  transform=" translate(0, 0)" d="M -8.88481 -7.37019 C 1.6991700000000005 -17.95417 18.23664 -27.049780000000002 18.23664 -6.37794 C 18.23664 14.293890000000001 5.337420000000002 24.54712 -8.884809999999998 15.451520000000002 C -23.107029999999998 6.3559100000000015 -19.46879 3.2137900000000013 -8.884809999999998 -7.370189999999997 z" stroke-linecap="round" />
</g>
<g transform="matrix(0.35 0 0 0.35 105.82 10.37)" id="qHZy48-jUwVI95_VPKzzP"  >
<path style="stroke: rgb(0,0,0); stroke-width: 0; stroke-dasharray: none; stroke-linecap: butt; stroke-dashoffset: 0; stroke-linejoin: miter; stroke-miterlimit: 4; fill: rgb(141,141,141); fill-rule: nonzero; opacity: 1;" vector-effect="non-scaling-stroke"  transform=" translate(0, 0)" d="M -24.62809 7.10578 C -19.9976 -13.896799999999999 25.48044 -23.32316 25.14969 -0.005329999999999835 C 24.81894 23.3125 -1.6410100000000014 9.09028 -1.6410100000000014 -0.005329999999999835 C -1.6410100000000014 -9.100940000000001 -29.258580000000002 28.10837 -24.62809 7.10578 z" stroke-linecap="round" />
</g>
</svg>