<?xml version="1.0" encoding="UTF-8" standalone="no" ?>
<!DOCTYPE svg PUBLIC "-//W3C//DTD SVG 1.1//EN" "http://www.w3.org/Graphics/SVG/1.1/DTD/svg11.dtd">
<svg xmlns="http://www.w3.org/2000/svg" xmlns:xlink="http://www.w3.org/1999/xlink" version="1.1" width="128" height="128" viewBox="0 0 128 128" xml:space="preserve">
<g transform="matrix(0.47 0 0 0.47 64.93 16.58)" id="0IYAL2RKLKTb2ONfj4aCx"  >
<path style="stroke: rgb(0,0,0); stroke-width: 0; stroke-dasharray: none; stroke-linecap: butt; stroke-dashoffset: 0; stroke-linejoin: miter; stroke-miterlimit: 4; fill: rgb(178,178,178); fill-rule: nonzero; opacity: 1;" vector-effect="non-scaling-stroke"  transform=" translate(0, 0)" d="M -23.55717 19.50129 C -9.99645 29.42377 33.331720000000004 9.082690000000001 27.708980000000004 2.963820000000002 C 22.086240000000004 -3.155039999999998 -31.164409999999997 -35.07236 -23.55717 -16.385019999999997 C -15.949929999999998 2.3023200000000017 -37.11789 9.578800000000001 -23.55717 19.50128 z" stroke-linecap="round" />
</g>
<g transform="matrix(1 0 0 1 40.15 107.43)" id="4SUNhxxARMBZZeHWOO4XU"  >
<path style="stroke: rgb(0,0,0); stroke-width: 0; stroke-dasharray: none; stroke-linecap: butt; stroke-dashoffset: 0; stroke-linejoin: miter; stroke-miterlimit: 4; fill: rgb(120,120,120); fill-rule: nonzero; opacity: 1;" vector-effect="non-scaling-stroke"  transform=" translate(0, 0)" d="M -19.71941 -15.98966 C -6.82019 -17.808780000000002 25.097130000000003 -16.15503 26.254749999999998 -4.248060000000001 C 27.41237 7.65892 -22.20003 25.188629999999996 -22.36541 11.793280000000001 C -22.53078 -1.6020699999999994 -32.61864 -14.170539999999997 -19.71942 -15.989669999999998 z" stroke-linecap="round" />
</g>
<g transform="matrix(1 0 0 1 83.32 52.66)" id="H6tzRjjIoZkHe8LtEL9gT"  >
<path style="stroke: rgb(0,0,0); stroke-width: 0; stroke-dasharray: none; stroke-linecap: butt; stroke-dashoffset: 0; stroke-linejoin: miter; stroke-miterlimit: 4; fill: rgb(210,210,210); fill-rule: nonzero; opacity: 1;" vector-effect="non-scaling-stroke"  transform=" translate(0, 0)" d="M -20.18259 15.84336 C -4.968120000000001 15.84336 44.809659999999994 -9.831019999999999 16.36521 -15.28839 C -12.079229999999999 -20.74575 -35.397059999999996 15.84336 -20.18259 15.84336 z" stroke-linecap="round" />
</g>
<g transform="matrix(1 0 0 1 22.32 35.27)" id="XhwDIGnXLQfNbDx_Y9vxC"  >
<path style="stroke: rgb(0,0,0); stroke-width: 0; stroke-dasharray: none; stroke-linecap: butt; stroke-dashoffset: 0; stroke-linejoin: miter; stroke-miterlimit: 4; fill: rgb(187,187,187); fill-rule: nonzero; opacity: 1;" vector-effect="non-scaling-stroke"  transform=" translate(0, 0)" d="M -11.65314 1.86089 C -3.0536600000000007 11.28725 18.61043 9.6335 12.98769 0.20713999999999988 C 7.36495 -9.21922 -7.849519999999998 -10.04609 -4.5420300000000005 -5.4156 C -1.2345400000000004 -0.7851100000000004 -20.25262 -7.56547 -11.65314 1.8608899999999995 z" stroke-linecap="round" />
</g>
<g transform="matrix(1 0 0 1 107.63 90.06)" id="Icld5gD3OJtBbHKGf4vNj"  >
<path style="stroke: rgb(0,0,0); stroke-width: 0; stroke-dasharray: none; stroke-linecap: butt; stroke-dashoffset: 0; stroke-linejoin: miter; stroke-miterlimit: 4; fill: rgb(106,106,106); fill-rule: nonzero; opacity: 1;" vector-effect="non-scaling-stroke"  transform=" translate(0, 0)" d="M 2.09297 -9.52553 C 14.3307 -2.74517 21.27643 13.57524 4.24284 10.92925 C -12.79075 8.28326 -17.578419999999998 6.84657 -12.451809999999998 3.0429499999999994 C -7.325199999999998 -0.7606700000000006 -10.144759999999998 -16.305889999999998 2.092970000000001 -9.52553 z" stroke-linecap="round" />
</g>
</svg>