<?xml version="1.0" encoding="UTF-8" standalone="no" ?>
<!DOCTYPE svg PUBLIC "-//W3C//DTD SVG 1.1//EN" "http://www.w3.org/Graphics/SVG/1.1/DTD/svg11.dtd">
<svg xmlns="http://www.w3.org/2000/svg" xmlns:xlink="http://www.w3.org/1999/xlink" version="1.1" width="128" height="128" viewBox="0 0 128 128" xml:space="preserve">
<desc>Created with Fabric.js 4.6.0</desc>
<defs>
</defs>
<g transform="matrix(1 0 0 1 31.9 34.53)" id="abm9qCjU2_dKLD5XN39Q8"  >
<path style="stroke: rgb(0,0,0); stroke-width: 0; stroke-dasharray: none; stroke-linecap: butt; stroke-dashoffset: 0; stroke-linejoin: miter; stroke-miterlimit: 4; fill: rgb(131,131,131); fill-rule: nonzero; opacity: 1;" vector-effect="non-scaling-stroke"  transform=" translate(0, 0)" d="M -18.25766 1.02883 C -10.485050000000001 16.07793 23.416759999999996 17.89705 20.770759999999996 6.65157 C 18.124769999999994 -4.59391 8.367659999999995 -20.63525 -3.5393200000000036 -10.878150000000002 C -15.446300000000004 -1.1210400000000007 -26.030280000000005 -14.020270000000002 -18.257670000000005 1.0288299999999992 z" stroke-linecap="round" />
</g>
<g transform="matrix(1 0 0 1 34.44 106.12)" id="A6NWoGKCTPLtVs2SRN-Zk"  >
<path style="stroke: rgb(0,0,0); stroke-width: 0; stroke-dasharray: none; stroke-linecap: butt; stroke-dashoffset: 0; stroke-linejoin: miter; stroke-miterlimit: 4; fill: rgb(178,178,178); fill-rule: nonzero; opacity: 1;" vector-effect="non-scaling-stroke"  transform=" translate(0, 0)" d="M -22.69191 -7.56104 C -16.738419999999998 14.599169999999999 16.336509999999997 25.5139 20.47088 11.787799999999999 C 24.60525 -1.9383000000000017 26.09362 -8.884030000000001 13.855890000000002 -9.04941 C 1.6181600000000014 -9.21478 -28.645399999999995 -29.72124 -22.69191 -7.56104 z" stroke-linecap="round" />
</g>
<g transform="matrix(1 0 0 1 101.93 97.52)" id="2CQL-PUf-1woiKCYtAmID"  >
<path style="stroke: rgb(0,0,0); stroke-width: 0; stroke-dasharray: none; stroke-linecap: butt; stroke-dashoffset: 0; stroke-linejoin: miter; stroke-miterlimit: 4; fill: rgb(118,118,118); fill-rule: nonzero; opacity: 1;" vector-effect="non-scaling-stroke"  transform=" translate(0, 0)" d="M -9.9009 8.15175 C -14.69677 -7.393470000000001 6.305820000000001 -17.81207 10.10944 -10.53559 C 13.91306 -3.259099999999999 -5.105030000000001 23.69697 -9.9009 8.15175 z" stroke-linecap="round" />
</g>
<g transform="matrix(1 0 0 1 77 64)" id="G4yr9Vm6AtYp-uq8dYBaI"  >
<path style="stroke: rgb(0,0,0); stroke-width: 0; stroke-dasharray: none; stroke-linecap: butt; stroke-dashoffset: 0; stroke-linejoin: miter; stroke-miterlimit: 4; fill: rgb(214,214,214); fill-rule: nonzero; opacity: 1;" vector-effect="non-scaling-stroke"  transform=" translate(0, 0)" d="M -0.50923 -16.11852 C 11.067 -10.49578 21.65098 3.06494 12.72074 4.884059999999998 C 3.7905099999999994 6.703179999999998 -16.05445 26.71352 -16.05445 11.499049999999997 C -16.05445 -3.7154200000000035 -12.08546 -21.741260000000004 -0.5092299999999987 -16.118520000000004 z" stroke-linecap="round" />
</g>
<g transform="matrix(1 0 0 1 81.41 16.11)" id="uYKGS0UgdDuOslFzHxH3t"  >
<path style="stroke: rgb(0,0,0); stroke-width: 0; stroke-dasharray: none; stroke-linecap: butt; stroke-dashoffset: 0; stroke-linejoin: miter; stroke-miterlimit: 4; fill: rgb(228,228,228); fill-rule: nonzero; opacity: 1;" vector-effect="non-scaling-stroke"  transform=" translate(0, 0)" d="M -9.05541 3.90285 C -0.6212999999999997 10.18709 16.22533 4.56435 12.09097 1.5876000000000001 C 7.956600000000001 -1.3891399999999998 -0.455919999999999 -7.5080100000000005 -4.92104 -6.68113 C -9.38616 -5.85426 -17.48952 -2.3813899999999997 -9.055409999999998 3.902850000000001 z" stroke-linecap="round" />
</g>
</svg>