<?xml version="1.0" encoding="UTF-8" standalone="no" ?>
<!DOCTYPE svg PUBLIC "-//W3C//DTD SVG 1.1//EN" "http://www.w3.org/Graphics/SVG/1.1/DTD/svg11.dtd">
<svg xmlns="http://www.w3.org/2000/svg" xmlns:xlink="http://www.w3.org/1999/xlink" version="1.1" width="128" height="128" viewBox="0 0 128 128" xml:space="preserve">
<g transform="matrix(1 0 0 1 52.86 62.69)" id="ZimBNTwS1zCCO3GF6mQUw"  >
<path style="stroke: rgb(0,0,0); stroke-width: 0; stroke-dasharray: none; stroke-linecap: butt; stroke-dashoffset: 0; stroke-linejoin: miter; stroke-miterlimit: 4; fill: rgb(196,196,196); fill-rule: nonzero; opacity: 1;" vector-effect="non-scaling-stroke"  transform=" translate(0, 0)" d="M -27.54092 2.32722 C -26.54867 24.15668 41.75107 9.76908 24.882849999999998 -3.2955200000000002 C 8.014629999999997 -16.360120000000002 -28.533170000000005 -19.50224 -27.54092 2.32722 z" stroke-linecap="round" />
</g>
<g transform="matrix(0.5 0 0 0.5 28.66 109.61)" id="PmBu611UI76bFnCwjpsCS"  >
<path style="stroke: rgb(0,0,0); stroke-width: 0; stroke-dasharray: none; stroke-linecap: butt; stroke-dashoffset: 0; stroke-linejoin: miter; stroke-miterlimit: 4; fill: rgb(178,178,178); fill-rule: nonzero; opacity: 1;" vector-effect="non-scaling-stroke"  transform=" translate(0, 0)" d="M -26.7629 -9.73848 C -8.902429999999999 3.8222400000000007 32.60661 -39.34055 35.2526 -17.34572 C 37.89859 4.64911 -4.43732 30.28219 -17.83267 22.178829999999998 C -31.22802 14.075469999999997 -44.62337 -23.299210000000002 -26.762900000000002 -9.738480000000003 z" stroke-linecap="round" />
</g>
<g transform="matrix(0.39 0 0 0.39 21.65 29.21)" id="hpDSZk8Z_d-kJVlxKmVyH"  >
<path style="stroke: rgb(0,0,0); stroke-width: 0; stroke-dasharray: none; stroke-linecap: butt; stroke-dashoffset: 0; stroke-linejoin: miter; stroke-miterlimit: 4; fill: rgb(88,88,88); fill-rule: nonzero; opacity: 1;" vector-effect="non-scaling-stroke"  transform=" translate(0, 0)" d="M -35.10113 18.06678 C -27.990019999999998 34.2735 10.95572 35.92725 5.994480000000003 26.00476 C 1.0332400000000028 16.08228 12.030660000000003 -15.504279999999998 19.472520000000003 -8.227799999999998 C 26.91438 -0.9513099999999985 49.90146 -21.953899999999997 35.67924000000001 -23.276899999999998 C 21.457020000000007 -24.599899999999998 -35.928 -45.43711 -38.243239999999986 -18.315659999999998 C -40.558489999999985 8.805790000000002 -42.212229999999984 1.860050000000001 -35.10111999999999 18.06677 z" stroke-linecap="round" />
</g>
<g transform="matrix(0.35 0 0 0.35 101.3 105.89)" id="E53RdM3MXMvhnxNskMSJH"  >
<path style="stroke: rgb(0,0,0); stroke-width: 0; stroke-dasharray: none; stroke-linecap: butt; stroke-dashoffset: 0; stroke-linejoin: miter; stroke-miterlimit: 4; fill: rgb(129,129,129); fill-rule: nonzero; opacity: 1;" vector-effect="non-scaling-stroke"  transform=" translate(0, 0)" d="M -5.51819 -17.49804 C 18.13039 -25.93215 45.25184 -12.37143 36.652350000000006 0.5277999999999992 C 28.052870000000006 13.427019999999999 -43.88511999999999 29.63374 -37.93162999999999 13.096279999999998 C -31.97813999999999 -3.4411900000000006 -29.166769999999993 -9.063930000000001 -5.51818999999999 -17.498040000000003 z" stroke-linecap="round" />
</g>
<g transform="matrix(1 0 0 1 89.4 29.21)" id="lBFQS3BToz4tQkyG-a5Zu"  >
<path style="stroke: rgb(0,0,0); stroke-width: 0; stroke-dasharray: none; stroke-linecap: butt; stroke-dashoffset: 0; stroke-linejoin: miter; stroke-miterlimit: 4; fill: rgb(150,150,150); fill-rule: nonzero; opacity: 1;" vector-effect="non-scaling-stroke"  transform=" translate(0, 0)" d="M -8.78467 15.54069 C -29.12576 3.7990899999999996 -43.8441 3.964459999999999 -25.65289 -10.91926 C -7.461679999999998 -25.802979999999998 38.34711 -16.707369999999997 33.55124 -6.45414 C 28.75537 3.7990900000000005 11.55641 27.28229 -8.784680000000002 15.540690000000001 z" stroke-linecap="round" />
</g>
</svg>