<?xml version="1.0" encoding="utf-8"?>
<!-- Generator: Adobe Illustrator 27.0.0, SVG Export Plug-In . SVG Version: 6.00 Build 0)  -->
<svg version="1.1" id="Entities" xmlns="http://www.w3.org/2000/svg" xmlns:xlink="http://www.w3.org/1999/xlink" x="0px" y="0px"
	 viewBox="0 0 36.2 43.4" style="enable-background:new 0 0 36.2 43.4;" xml:space="preserve">
<style type="text/css">
	.st0{fill:#0096B0;}
	.st1{fill:#00A9B9;}
	.st2{fill:#8FD5E3;}
	.st3{fill:none;stroke:#B2E2F0;stroke-width:2;stroke-miterlimit:10;}
	.st4{fill:#59B8DC;}
	.st5{fill:#0078A2;}
	.st6{fill:#AEE2FA;}
	.st7{fill:#A5A7AA;}
</style>
<g id="blackbird_egg">
	<g id="Egg">
		<path class="st0" d="M18.1,0.9c-7,0.8-11.8,8-14.6,13.7c-2.8,5.8-3.2,12.2-0.8,18.1c2.2,5.4,6.9,10.5,16.5,9.3
			c13.9-1.7,16-12.9,16-19c0-2.4-0.4-4.8-1.3-7.1C31.8,10.6,26.6-0.1,18.1,0.9L18.1,0.9z"/>
		<path class="st1" d="M23.8,1.8c0,0,14.7,35.1-16.5,37.2C6.4,38.1-0.5,34.1,2,19.6C7,3.8,17-1.3,23.8,1.8z"/>
		<path class="st2" d="M15.4,5.5c-1.4-0.4-3.7,1.7-4.7,3.2c-1.2,1.7-1.1,3.7-0.2,4.4c1.2,1,4.5-0.4,5.9-2.7
			C17.6,8,16.8,5.8,15.4,5.5z"/>
		<path class="st3" d="M17.9,1.2c-7,0.8-11.8,8-14.6,13.7c-2.8,5.8-3.2,12.2-0.7,18.1c2.2,5.4,6.9,10.5,16.5,9.3
			c13.9-1.7,16-12.9,16-19c0-2.4-0.4-4.8-1.3-7.1C31.6,10.8,26.3,0.2,17.9,1.2L17.9,1.2z"/>
	</g>
	<g id="egg_specks_copy">
		<ellipse transform="matrix(0.8774 -0.4797 0.4797 0.8774 -2.1688 12.5921)" class="st4" cx="23.6" cy="10.5" rx="1.2" ry="0.6"/>
		<ellipse transform="matrix(0.8544 -0.5197 0.5197 0.8544 -16.2912 10.5759)" class="st4" cx="10.7" cy="34.4" rx="0.6" ry="1.1"/>
		<ellipse transform="matrix(0.5058 -0.8626 0.8626 0.5058 -13.9044 39.9533)" class="st4" cx="27.9" cy="32.1" rx="0.6" ry="1.2"/>
		<ellipse transform="matrix(0.7314 -0.6819 0.6819 0.7314 -3.421 25.2627)" class="st5" cx="30.4" cy="17" rx="0.3" ry="1.4"/>
		<ellipse transform="matrix(0.9899 -0.1416 0.1416 0.9899 -5.3911 2.3247)" class="st5" cx="13.6" cy="39" rx="1.6" ry="0.3"/>
		<ellipse transform="matrix(0.566 -0.8244 0.8244 0.566 -12.7994 15.5039)" class="st5" cx="8.3" cy="19.9" rx="1.4" ry="0.3"/>
		<ellipse transform="matrix(0.6115 -0.7913 0.7913 0.6115 -10.0975 23.6547)" class="st6" cx="19" cy="22.1" rx="0.5" ry="0.8"/>
		<ellipse transform="matrix(0.9686 -0.2485 0.2485 0.9686 -7.5839 5.8162)" class="st6" cx="19.2" cy="32.9" rx="0.8" ry="0.5"/>
		<ellipse transform="matrix(0.5649 -0.8251 0.8251 0.5649 -19.8636 17.6407)" class="st6" cx="6.8" cy="27.7" rx="0.7" ry="0.6"/>
		<ellipse transform="matrix(0.1763 -0.9843 0.9843 0.1763 8.7327 30.8666)" class="st4" cx="22.8" cy="10.2" rx="1.1" ry="0.7"/>
		
			<ellipse transform="matrix(0.9996 -2.833054e-02 2.833054e-02 0.9996 -0.4567 0.8661)" class="st5" cx="30.3" cy="16.6" rx="1.6" ry="0.3"/>
		<ellipse transform="matrix(0.9706 -0.2409 0.2409 0.9706 -1.0388 4.5846)" class="st6" cx="18.2" cy="6.5" rx="0.6" ry="0.7"/>
		<ellipse transform="matrix(0.3753 -0.9269 0.9269 0.3753 -20.0441 20.4701)" class="st4" cx="5.2" cy="25.1" rx="0.6" ry="1.3"/>
		<ellipse transform="matrix(0.6981 -0.716 0.716 0.6981 -18.0015 24.172)" class="st6" cx="19.7" cy="33.4" rx="0.5" ry="0.8"/>
		<ellipse transform="matrix(0.9917 -0.1289 0.1289 0.9917 -2.3444 3.4695)" class="st4" cx="25.6" cy="19.8" rx="1.3" ry="0.5"/>
		<ellipse transform="matrix(0.2526 -0.9676 0.9676 0.2526 3.3059 46.2435)" class="st6" cx="31.6" cy="21" rx="0.5" ry="0.8"/>
		<ellipse transform="matrix(0.4237 -0.9058 0.9058 0.4237 -16.3821 29.8383)" class="st5" cx="15.3" cy="27.8" rx="0.3" ry="1.5"/>
		<ellipse transform="matrix(0.8502 -0.5265 0.5265 0.8502 -6.4888 16.721)" class="st4" cx="26.1" cy="19.8" rx="0.6" ry="1.1"/>
		<ellipse transform="matrix(0.8502 -0.5265 0.5265 0.8502 -2.4245 13.5655)" class="st4" cx="22.6" cy="11" rx="0.6" ry="1.1"/>
		<ellipse transform="matrix(0.8118 -0.584 0.584 0.8118 -7.327 18.7606)" class="st4" cx="25.4" cy="20.7" rx="1.2" ry="0.6"/>
		<ellipse transform="matrix(0.7834 -0.6216 0.6216 0.7834 -6.3965 24.1242)" class="st6" cx="31.4" cy="21.2" rx="0.8" ry="0.5"/>
		<ellipse transform="matrix(0.6115 -0.7913 0.7913 0.6115 -5.7972 21.0634)" class="st6" cx="18.6" cy="16.4" rx="0.5" ry="0.8"/>
		<ellipse transform="matrix(0.64 -0.7684 0.7684 0.64 -9.6524 22.8552)" class="st6" cx="19.6" cy="21.7" rx="0.7" ry="0.5"/>
		<ellipse transform="matrix(0.9269 -0.3753 0.3753 0.9269 -6.7728 8.7433)" class="st6" cx="19.1" cy="21.8" rx="0.8" ry="0.5"/>
		
			<ellipse transform="matrix(5.316271e-02 -0.9986 0.9986 5.316271e-02 -13.456 42.3446)" class="st5" cx="15.6" cy="28.3" rx="0.3" ry="1.6"/>
		<ellipse transform="matrix(0.1884 -0.9821 0.9821 0.1884 -14.6648 38.8321)" class="st5" cx="16.2" cy="28.3" rx="1.3" ry="0.3"/>
		<ellipse transform="matrix(0.5407 -0.8412 0.8412 0.5407 -14.431 24.1655)" class="st6" cx="14.9" cy="25.3" rx="0.5" ry="0.8"/>
		<ellipse transform="matrix(0.6115 -0.7913 0.7913 0.6115 -1.4734 25.1397)" class="st6" cx="24.9" cy="14.1" rx="0.5" ry="0.8"/>
		
			<ellipse transform="matrix(0.9987 -5.092790e-02 5.092790e-02 0.9987 -0.7143 0.4635)" class="st6" cx="8.7" cy="14.2" rx="0.9" ry="0.5"/>
		<ellipse transform="matrix(0.5095 -0.8605 0.8605 0.5095 -2.3552 21.8163)" class="st5" cx="18" cy="13" rx="0.3" ry="1.5"/>
		<ellipse transform="matrix(0.7775 -0.6289 0.6289 0.7775 -9.1732 24.5455)" class="st5" cx="30.1" cy="25.2" rx="1.4" ry="0.3"/>
		<ellipse transform="matrix(0.9812 -0.1932 0.1932 0.9812 -3.1936 2.5422)" class="st4" cx="11.4" cy="17.6" rx="0.7" ry="1.1"/>
		<ellipse transform="matrix(0.9584 -0.2855 0.2855 0.9584 -4.5768 3.7068)" class="st4" cx="10.4" cy="17.6" rx="1.3" ry="0.6"/>
		<path class="st4" d="M10.2,18.1c0-0.3,0.6-0.5,1.3-0.5s1.3,0.2,1.3,0.5s-0.6,0.5-1.3,0.5S10.2,18.5,10.2,18.1z"/>
		<ellipse transform="matrix(0.1855 -0.9826 0.9826 0.1855 -21.2309 29.8019)" class="st6" cx="7.4" cy="27.7" rx="0.5" ry="0.8"/>
		<ellipse transform="matrix(0.716 -0.6981 0.6981 0.716 -17.0377 12.4365)" class="st6" cx="6.8" cy="27.2" rx="0.8" ry="0.5"/>
		<ellipse transform="matrix(0.967 -0.2546 0.2546 0.967 -8.4149 3.6857)" class="st4" cx="10" cy="34.3" rx="1.3" ry="0.6"/>
		<ellipse transform="matrix(0.744 -0.6682 0.6682 0.744 -20.2696 16.8198)" class="st4" cx="11.8" cy="34.9" rx="0.6" ry="1.1"/>
		<ellipse transform="matrix(0.8629 -0.5053 0.5053 0.8629 -15.5349 10.4682)" class="st4" cx="11.5" cy="33.9" rx="1.2" ry="0.6"/>
		<ellipse transform="matrix(0.4542 -0.8909 0.8909 0.4542 -13.8064 18.6444)" class="st7" cx="8.3" cy="20.6" rx="1.3" ry="0.3"/>
		<ellipse transform="matrix(0.9842 -0.1769 0.1769 0.9842 -3.3315 1.7487)" class="st5" cx="8.1" cy="19.6" rx="1.6" ry="0.3"/>
		<ellipse transform="matrix(0.838 -0.5456 0.5456 0.838 -10.0933 7.112)" class="st5" cx="6.9" cy="20.6" rx="1.5" ry="0.3"/>
		<ellipse transform="matrix(0.8839 -0.4677 0.4677 0.8839 -8.5679 6.0137)" class="st5" cx="7.8" cy="20.3" rx="1.5" ry="0.3"/>
		<ellipse transform="matrix(0.9194 -0.3933 0.3933 0.9194 -3.8173 11.047)" class="st6" cx="25" cy="14.8" rx="0.8" ry="0.5"/>
		<ellipse transform="matrix(0.8702 -0.4927 0.4927 0.8702 -3.8768 14.425)" class="st6" cx="25.4" cy="14.6" rx="0.6" ry="0.7"/>
		<ellipse transform="matrix(0.34 -0.9404 0.9404 0.34 3.9171 33.2116)" class="st6" cx="25.6" cy="13.8" rx="0.5" ry="0.8"/>
		<ellipse transform="matrix(0.5403 -0.8415 0.8415 0.5403 -5.75 32.2429)" class="st4" cx="26.6" cy="21.4" rx="0.6" ry="1.2"/>
		<ellipse transform="matrix(0.4259 -0.9048 0.9048 0.4259 -3.0363 35.8334)" class="st4" cx="26.7" cy="20.3" rx="1.1" ry="0.6"/>
		<ellipse transform="matrix(0.9519 -0.3063 0.3063 0.9519 -7.5951 8.0733)" class="st4" cx="21.9" cy="28.2" rx="0.7" ry="1.1"/>
		<ellipse transform="matrix(0.4247 -0.9053 0.9053 0.4247 -21.3104 41.563)" class="st4" cx="22" cy="37.5" rx="0.6" ry="1.2"/>
		<ellipse transform="matrix(0.6981 -0.716 0.716 0.6981 -12.9068 14.4923)" class="st6" cx="10.7" cy="22.6" rx="0.5" ry="0.8"/>
		<ellipse transform="matrix(0.9279 -0.3729 0.3729 0.9279 -0.4112 8.1817)" class="st5" cx="20.9" cy="5.2" rx="1.5" ry="0.3"/>
		<ellipse transform="matrix(0.9279 -0.3729 0.3729 0.9279 -3.176 7.2843)" class="st5" cx="17.2" cy="11.9" rx="1.5" ry="0.3"/>
		<ellipse transform="matrix(0.2558 -0.9667 0.9667 0.2558 1.6282 26.7618)" class="st5" cx="18.2" cy="12.3" rx="0.3" ry="1.5"/>
		<ellipse transform="matrix(0.4181 -0.9084 0.9084 0.4181 -1.3392 22.4124)" class="st5" cx="16.8" cy="12.3" rx="1.3" ry="0.3"/>
		<ellipse transform="matrix(0.5081 -0.8613 0.8613 0.5081 -18.199 16.6573)" class="st4" cx="5.5" cy="24.3" rx="1.1" ry="0.6"/>
		<ellipse class="st4" cx="5.9" cy="24.9" rx="1.3" ry="0.5"/>
		<ellipse transform="matrix(0.64 -0.7684 0.7684 0.64 -10.4722 21.998)" class="st6" cx="18.2" cy="22.2" rx="0.7" ry="0.5"/>
		<ellipse transform="matrix(0.9434 -0.3317 0.3317 0.9434 -6.5116 7.5734)" class="st6" cx="18.9" cy="22.9" rx="0.6" ry="0.7"/>
		<ellipse transform="matrix(0.7834 -0.6216 0.6216 0.7834 -9.6915 17.2709)" class="st6" cx="19.9" cy="22.5" rx="0.8" ry="0.5"/>
		<ellipse transform="matrix(0.4044 -0.9146 0.9146 0.4044 -8.3649 17.1255)" class="st6" cx="9" cy="15" rx="0.7" ry="0.6"/>
		<ellipse transform="matrix(0.2765 -0.961 0.961 0.2765 -3.1436 29.8182)" class="st6" cx="18.2" cy="17" rx="0.5" ry="0.8"/>
		<ellipse transform="matrix(0.6599 -0.7513 0.7513 0.6599 -10.8609 22.662)" class="st6" cx="19.6" cy="23.3" rx="0.5" ry="0.8"/>
		
			<ellipse transform="matrix(2.898612e-02 -0.9996 0.9996 2.898612e-02 -2.3182 41.9579)" class="st6" cx="20.4" cy="22.2" rx="0.5" ry="0.9"/>
		<ellipse transform="matrix(0.9404 -0.34 0.34 0.9404 -6.633 7.2759)" class="st6" cx="17.4" cy="22.6" rx="0.8" ry="0.5"/>
		<ellipse transform="matrix(0.4884 -0.8726 0.8726 0.4884 -11.0582 27.7354)" class="st6" cx="18.1" cy="23.3" rx="0.7" ry="0.6"/>
		<ellipse transform="matrix(0.4884 -0.8726 0.8726 0.4884 -3.1469 39.0377)" class="st6" cx="31.7" cy="22.2" rx="0.7" ry="0.6"/>
		<ellipse transform="matrix(0.4884 -0.8726 0.8726 0.4884 -14.6649 25.3199)" class="st6" cx="14.3" cy="25.2" rx="0.7" ry="0.6"/>
		<ellipse transform="matrix(0.4884 -0.8726 0.8726 0.4884 -14.5662 21.4669)" class="st6" cx="11" cy="23.2" rx="0.7" ry="0.6"/>
		<ellipse transform="matrix(0.2765 -0.961 0.961 0.2765 -13.4183 31.2054)" class="st6" cx="14" cy="24.5" rx="0.5" ry="0.8"/>
		<ellipse transform="matrix(0.9684 -0.2496 0.2496 0.9684 -5.2389 3.5931)" class="st6" cx="11.5" cy="22.5" rx="0.8" ry="0.5"/>
		<ellipse transform="matrix(0.2765 -0.961 0.961 0.2765 -12.8201 26.2712)" class="st6" cx="11" cy="21.6" rx="0.5" ry="0.8"/>
		<ellipse transform="matrix(0.823 -0.568 0.568 0.823 -14.8902 9.1538)" class="st6" cx="7.2" cy="28.5" rx="0.8" ry="0.5"/>
		<ellipse transform="matrix(0.9404 -0.34 0.34 0.9404 -9.1451 3.7235)" class="st6" cx="6.1" cy="28" rx="0.8" ry="0.5"/>
		<ellipse transform="matrix(0.2039 -0.979 0.979 0.2039 -6.2306 21.2441)" class="st6" cx="9.9" cy="14.5" rx="0.5" ry="0.8"/>
		<ellipse transform="matrix(0.9684 -0.2496 0.2496 0.9684 -3.4769 2.5054)" class="st6" cx="8.1" cy="15" rx="0.8" ry="0.5"/>
		<ellipse transform="matrix(0.9684 -0.2496 0.2496 0.9684 -4.2847 8.6912)" class="st6" cx="32.1" cy="21.2" rx="0.8" ry="0.5"/>
		<ellipse transform="matrix(0.34 -0.9404 0.9404 0.34 9.3283 29.5437)" class="st6" cx="25.7" cy="8.1" rx="0.5" ry="0.8"/>
		<ellipse transform="matrix(0.4044 -0.9146 0.9146 0.4044 5.894 20.0976)" class="st6" cx="18.4" cy="5.5" rx="0.7" ry="0.6"/>
		
			<ellipse transform="matrix(7.880438e-02 -0.9969 0.9969 7.880438e-02 15.2547 33.2779)" class="st6" cx="25.6" cy="8.4" rx="0.5" ry="0.8"/>
		<ellipse transform="matrix(0.2197 -0.9756 0.9756 0.2197 -7.9764 32.2203)" class="st4" cx="16.2" cy="21.1" rx="1.1" ry="0.7"/>
		<ellipse transform="matrix(0.6868 -0.7268 0.7268 0.6868 -9.4351 18.1405)" class="st4" cx="16.3" cy="20" rx="0.6" ry="1.2"/>
		<ellipse transform="matrix(0.9773 -0.2117 0.2117 0.9773 -5.4768 4.9641)" class="st4" cx="20.4" cy="28.1" rx="1.3" ry="0.6"/>
		<ellipse transform="matrix(0.2197 -0.9756 0.9756 0.2197 -10.4906 42.5594)" class="st4" cx="21.4" cy="27.8" rx="1.1" ry="0.7"/>
		<ellipse transform="matrix(0.6571 -0.7538 0.7538 0.6571 -9.9258 31.3906)" class="st5" cx="29.5" cy="26.6" rx="0.3" ry="1.4"/>
		<path class="st5" d="M28.3,26.2c-0.9,0-1.6-0.1-1.6-0.3c0-0.1,0.7-0.3,1.6-0.3s1.6,0.1,1.6,0.3S29.2,26.2,28.3,26.2z"/>
		<ellipse transform="matrix(0.707 -0.7072 0.7072 0.707 -24.1353 22.1214)" class="st5" cx="14.6" cy="40.2" rx="0.3" ry="1.4"/>
		<ellipse transform="matrix(0.3438 -0.939 0.939 0.3438 -27.4581 38.5082)" class="st5" cx="13.8" cy="38.9" rx="1.3" ry="0.3"/>
		<ellipse transform="matrix(0.3105 -0.9506 0.9506 0.3105 -11.4039 50.1994)" class="st4" cx="28.9" cy="33" rx="1.1" ry="0.7"/>
		<ellipse transform="matrix(0.9948 -0.1015 0.1015 0.9948 -3.2088 3.0366)" class="st4" cx="28.2" cy="33" rx="1.3" ry="0.5"/>
		<ellipse transform="matrix(0.8544 -0.5197 0.5197 0.8544 -16.7338 16.5933)" class="st4" cx="21.2" cy="38.2" rx="0.6" ry="1.1"/>
		<ellipse transform="matrix(0.584 -0.8118 0.8118 0.584 -21.531 32.1865)" class="st4" cx="20.6" cy="37.1" rx="0.6" ry="1.2"/>
	</g>
</g>
</svg>
