<?xml version="1.0" encoding="utf-8"?>
<!-- Generator: Adobe Illustrator 27.0.0, SVG Export Plug-In . SVG Version: 6.00 Build 0)  -->
<svg version="1.1" id="Entities" xmlns="http://www.w3.org/2000/svg" xmlns:xlink="http://www.w3.org/1999/xlink" x="0px" y="0px"
	 viewBox="0 0 36.2 47.2" style="enable-background:new 0 0 36.2 47.2;" xml:space="preserve">
<style type="text/css">
	.st0{fill:#232323;}
	.st1{fill:#333333;}
	.st2{fill:#FFFFFF;}
	.st3{fill:none;stroke:#4D4D4F;stroke-width:2;stroke-miterlimit:10;}
</style>
<g id="quail_egg">
	<g id="Egg">
		<path class="st0" d="M18.6,0.8c-7,0.8-12,8.6-14.8,14.8c-2.9,6.3-3.4,13.3-1.1,19.8c2.1,5.9,6.7,11.5,16.4,10.4
			C33,44.1,35.3,31.9,35.4,25.3c0.1-2.6-0.3-5.2-1.2-7.7C32.2,11.5,27.1-0.2,18.6,0.8L18.6,0.8z"/>
		<path class="st1" d="M24.3,1.9c0,0,14.1,38.6-17.1,40.4c-0.9-1-7.8-5.4-5-21.3C7.5,3.8,17.5-1.7,24.3,1.9z"/>
		<path class="st2" d="M15.8,5.7c-1.4-0.4-3.7,1.8-4.8,3.4c-1.2,1.9-1.2,4-0.3,4.8c1.2,1.1,4.6-0.4,5.9-2.9
			C18.1,8.5,17.2,6.2,15.8,5.7L15.8,5.7z"/>
		<path class="st3" d="M18.4,1.1c-7,0.8-12,8.6-14.8,14.8c-2.9,6.3-3.4,13.3-1.1,19.8c2.1,5.9,6.7,11.5,16.4,10.4
			c13.9-1.7,16.2-13.9,16.3-20.5c0.1-2.6-0.3-5.2-1.2-7.7C32,11.8,26.9,0.1,18.4,1.1L18.4,1.1z"/>
	</g>
</g>
</svg>
