<?xml version="1.0" encoding="utf-8"?>
<!-- Generator: Adobe Illustrator 27.0.0, SVG Export Plug-In . SVG Version: 6.00 Build 0)  -->
<svg version="1.1" id="Entities" xmlns="http://www.w3.org/2000/svg" xmlns:xlink="http://www.w3.org/1999/xlink" x="0px" y="0px"
	 viewBox="0 0 36.2 47.2" style="enable-background:new 0 0 36.2 47.2;" xml:space="preserve">
<style type="text/css">
	.st0{fill:#FFDDB1;}
	.st1{fill:#FCE8C3;}
	.st2{fill:#FFFFFF;}
	.st3{fill:none;stroke:#F0EFE8;stroke-width:2;stroke-miterlimit:10;}
	.st4{fill:#2A2311;}
</style>
<g id="quail_egg">
	<g id="Egg">
		<path class="st0" d="M18.6,0.8c-7,0.8-12,8.6-14.8,14.8c-2.9,6.3-3.4,13.3-1.1,19.8c2.1,5.9,6.7,11.5,16.4,10.4
			C33,44.1,35.3,31.9,35.4,25.3c0.1-2.6-0.3-5.2-1.2-7.7C32.2,11.5,27.1-0.2,18.6,0.8L18.6,0.8z"/>
		<path class="st1" d="M24.3,1.9c0,0,14.1,38.6-17.1,40.4c-0.9-1-7.8-5.4-5-21.3C7.5,3.8,17.5-1.7,24.3,1.9z"/>
		<path class="st2" d="M15.8,5.7c-1.4-0.4-3.7,1.8-4.8,3.4c-1.2,1.9-1.2,4-0.3,4.8c1.2,1.1,4.6-0.4,5.9-2.9
			C18.1,8.5,17.2,6.2,15.8,5.7L15.8,5.7z"/>
		<path class="st3" d="M18.4,1.1c-7,0.8-12,8.6-14.8,14.8c-2.9,6.3-3.4,13.3-1.1,19.8c2.1,5.9,6.7,11.5,16.4,10.4
			c13.9-1.7,16.2-13.9,16.3-20.5c0.1-2.6-0.3-5.2-1.2-7.7C32,11.8,26.9,0.1,18.4,1.1L18.4,1.1z"/>
	</g>
	<g id="egg_specks">
		<ellipse transform="matrix(0.8458 -0.5335 0.5335 0.8458 -2.3679 14.3548)" class="st4" cx="23.6" cy="11.3" rx="1.3" ry="0.6"/>
		<ellipse transform="matrix(0.8898 -0.4564 0.4564 0.8898 -15.8635 9.075)" class="st4" cx="10.9" cy="37.4" rx="0.6" ry="1.2"/>
		<ellipse transform="matrix(0.5608 -0.828 0.828 0.5608 -16.6931 38.5569)" class="st4" cx="28" cy="35" rx="0.6" ry="1.2"/>
		<ellipse transform="matrix(0.7634 -0.6459 0.6459 0.7634 -4.6609 24.0524)" class="st4" cx="30.5" cy="18.4" rx="0.3" ry="1.5"/>
		<ellipse transform="matrix(0.9879 -0.1553 0.1553 0.9879 -6.4338 2.6386)" class="st4" cx="13.7" cy="42.5" rx="1.6" ry="0.3"/>
		<ellipse transform="matrix(0.5285 -0.849 0.849 0.5285 -14.3397 17.3942)" class="st4" cx="8.5" cy="21.6" rx="1.5" ry="0.3"/>
		<ellipse transform="matrix(0.7031 -0.7111 0.7111 0.7031 -11.4266 20.6808)" class="st4" cx="19.1" cy="24" rx="0.6" ry="0.8"/>
		<ellipse transform="matrix(0.9551 -0.2964 0.2964 0.9551 -9.7357 7.3477)" class="st4" cx="19.4" cy="35.8" rx="0.8" ry="0.5"/>
		<ellipse transform="matrix(0.4471 -0.8945 0.8945 0.4471 -23.0646 22.8231)" class="st4" cx="6.9" cy="30.1" rx="0.8" ry="0.6"/>
		<ellipse transform="matrix(0.1473 -0.9891 0.9891 0.1473 8.7182 32.0871)" class="st4" cx="23" cy="11" rx="1.2" ry="0.7"/>
		
			<ellipse transform="matrix(0.9995 -3.114123e-02 3.114123e-02 0.9995 -0.5455 0.9578)" class="st4" cx="30.5" cy="18" rx="1.6" ry="0.3"/>
		<ellipse transform="matrix(0.9857 -0.1683 0.1683 0.9857 -0.9171 3.1747)" class="st4" cx="18.3" cy="7" rx="0.6" ry="0.8"/>
		<ellipse transform="matrix(0.4216 -0.9068 0.9068 0.4216 -21.7774 20.5308)" class="st4" cx="5.2" cy="27.3" rx="0.6" ry="1.3"/>
		<ellipse transform="matrix(0.7876 -0.6162 0.6162 0.7876 -18.2043 19.9132)" class="st4" cx="19.8" cy="36.4" rx="0.6" ry="0.8"/>
		<ellipse transform="matrix(0.9892 -0.1468 0.1468 0.9892 -2.8923 4.0033)" class="st4" cx="25.7" cy="21.6" rx="1.3" ry="0.6"/>
		<ellipse transform="matrix(0.3012 -0.9536 0.9536 0.3012 0.4407 46.0648)" class="st4" cx="31.6" cy="22.7" rx="0.5" ry="0.8"/>
		<ellipse transform="matrix(0.4576 -0.8892 0.8892 0.4576 -18.6166 30.0734)" class="st4" cx="15.3" cy="30.3" rx="0.3" ry="1.5"/>
		<ellipse transform="matrix(0.8863 -0.4631 0.4631 0.8863 -6.9571 14.6198)" class="st4" cx="26.3" cy="21.5" rx="0.6" ry="1.2"/>
		<ellipse transform="matrix(0.8863 -0.4631 0.4631 0.8863 -2.9797 11.8784)" class="st4" cx="22.7" cy="12" rx="0.6" ry="1.2"/>
		<ellipse transform="matrix(0.7677 -0.6408 0.6408 0.7677 -8.4682 21.5898)" class="st4" cx="25.5" cy="22.5" rx="1.2" ry="0.6"/>
		<ellipse transform="matrix(0.7008 -0.7133 0.7133 0.7008 -7.0828 29.3662)" class="st4" cx="31.5" cy="23.1" rx="0.8" ry="0.6"/>
		<ellipse transform="matrix(0.7031 -0.7111 0.7111 0.7031 -7.0955 18.5394)" class="st4" cx="18.7" cy="17.8" rx="0.6" ry="0.8"/>
		<ellipse transform="matrix(0.5274 -0.8496 0.8496 0.5274 -10.7156 27.8392)" class="st4" cx="19.7" cy="23.6" rx="0.8" ry="0.6"/>
		<ellipse transform="matrix(0.8959 -0.4443 0.4443 0.8959 -8.483 10.9811)" class="st4" cx="19.2" cy="23.6" rx="0.8" ry="0.5"/>
		
			<ellipse transform="matrix(5.842464e-02 -0.9983 0.9983 5.842464e-02 -15.8174 44.6712)" class="st4" cx="15.8" cy="30.7" rx="0.3" ry="1.6"/>
		<ellipse transform="matrix(0.1711 -0.9853 0.9853 0.1711 -16.9316 41.5343)" class="st4" cx="16.2" cy="30.8" rx="1.4" ry="0.3"/>
		<ellipse transform="matrix(0.629 -0.7774 0.7774 0.629 -15.7827 21.918)" class="st4" cx="15.1" cy="27.5" rx="0.5" ry="0.8"/>
		<ellipse transform="matrix(0.7031 -0.7111 0.7111 0.7031 -3.3862 22.2729)" class="st4" cx="25" cy="15.2" rx="0.6" ry="0.8"/>
		
			<ellipse transform="matrix(0.9981 -6.103244e-02 6.103244e-02 0.9981 -0.9231 0.5642)" class="st4" cx="8.8" cy="15.4" rx="0.9" ry="0.5"/>
		<ellipse transform="matrix(0.546 -0.8378 0.8378 0.546 -3.5189 21.495)" class="st4" cx="18.1" cy="14" rx="0.3" ry="1.5"/>
		<ellipse transform="matrix(0.7467 -0.6652 0.6652 0.7467 -10.6556 27.0453)" class="st4" cx="30.2" cy="27.5" rx="1.5" ry="0.3"/>
		<ellipse transform="matrix(0.9869 -0.1616 0.1616 0.9869 -2.9358 2.1044)" class="st4" cx="11.5" cy="19.1" rx="0.7" ry="1.2"/>
		<ellipse transform="matrix(0.9465 -0.3228 0.3228 0.9465 -5.5929 4.4359)" class="st4" cx="10.6" cy="19.1" rx="1.3" ry="0.6"/>
		<path class="st4" d="M10.4,19.7c0-0.3,0.6-0.6,1.3-0.6s1.3,0.3,1.3,0.6s-0.6,0.6-1.3,0.6S10.4,20.1,10.4,19.7z"/>
		<ellipse transform="matrix(0.2217 -0.9751 0.9751 0.2217 -23.521 30.736)" class="st4" cx="7.5" cy="30.1" rx="0.5" ry="0.8"/>
		<ellipse transform="matrix(0.6161 -0.7876 0.7876 0.6161 -20.5847 16.7318)" class="st4" cx="6.9" cy="29.5" rx="0.8" ry="0.6"/>
		<ellipse transform="matrix(0.9575 -0.2884 0.2884 0.9575 -10.3495 4.5195)" class="st4" cx="10.2" cy="37.4" rx="1.3" ry="0.6"/>
		<ellipse transform="matrix(0.7942 -0.6076 0.6076 0.7942 -20.6089 15.0901)" class="st4" cx="12" cy="38" rx="0.6" ry="1.2"/>
		<ellipse transform="matrix(0.8283 -0.5602 0.5602 0.8283 -18.6614 12.8778)" class="st4" cx="11.7" cy="36.9" rx="1.2" ry="0.6"/>
		<ellipse transform="matrix(0.4195 -0.9078 0.9078 0.4195 -15.3618 20.7025)" class="st4" cx="8.5" cy="22.4" rx="1.4" ry="0.3"/>
		<ellipse transform="matrix(0.981 -0.1938 0.1938 0.981 -3.9509 2.0053)" class="st4" cx="8.3" cy="21.2" rx="1.6" ry="0.3"/>
		<ellipse transform="matrix(0.8128 -0.5825 0.5825 0.8128 -11.661 8.28)" class="st4" cx="7.1" cy="22.3" rx="1.5" ry="0.3"/>
		<ellipse transform="matrix(0.8642 -0.5032 0.5032 0.8642 -9.9826 6.9949)" class="st4" cx="8" cy="22" rx="1.5" ry="0.3"/>
		<ellipse transform="matrix(0.8853 -0.4649 0.4649 0.8853 -4.6113 13.5168)" class="st4" cx="25.1" cy="16.1" rx="0.8" ry="0.5"/>
		<ellipse transform="matrix(0.9265 -0.3762 0.3762 0.9265 -4.0615 10.7868)" class="st4" cx="25.6" cy="15.8" rx="0.6" ry="0.8"/>
		<ellipse transform="matrix(0.4035 -0.915 0.915 0.4035 1.5963 32.48)" class="st4" cx="25.7" cy="15" rx="0.5" ry="0.8"/>
		<ellipse transform="matrix(0.5964 -0.8027 0.8027 0.5964 -7.8173 30.8448)" class="st4" cx="26.8" cy="23.2" rx="0.6" ry="1.2"/>
		<ellipse transform="matrix(0.3673 -0.9301 0.9301 0.3673 -3.501 38.9006)" class="st4" cx="26.8" cy="22" rx="1.2" ry="0.7"/>
		<ellipse transform="matrix(0.9658 -0.2594 0.2594 0.9658 -7.2356 6.7574)" class="st4" cx="22" cy="30.8" rx="0.7" ry="1.2"/>
		<ellipse transform="matrix(0.475 -0.88 0.88 0.475 -24.3204 40.9642)" class="st4" cx="22.2" cy="40.9" rx="0.6" ry="1.3"/>
		<ellipse transform="matrix(0.7876 -0.6162 0.6162 0.7876 -12.7736 11.8915)" class="st4" cx="10.9" cy="24.5" rx="0.6" ry="0.8"/>
		<ellipse transform="matrix(0.9146 -0.4044 0.4044 0.9146 -0.4147 8.9957)" class="st4" cx="21.1" cy="5.5" rx="1.5" ry="0.3"/>
		<ellipse transform="matrix(0.9146 -0.4044 0.4044 0.9146 -3.684 8.1183)" class="st4" cx="17.4" cy="12.8" rx="1.5" ry="0.3"/>
		<ellipse transform="matrix(0.2793 -0.9602 0.9602 0.2793 0.345 27.254)" class="st4" cx="18.3" cy="13.4" rx="0.3" ry="1.6"/>
		<ellipse transform="matrix(0.3849 -0.923 0.923 0.3849 -1.758 23.8233)" class="st4" cx="17" cy="13.2" rx="1.4" ry="0.3"/>
		<ellipse transform="matrix(0.4451 -0.8955 0.8955 0.4451 -20.4742 19.5723)" class="st4" cx="5.6" cy="26.3" rx="1.2" ry="0.6"/>
		<ellipse class="st4" cx="6.1" cy="27.1" rx="1.3" ry="0.6"/>
		<ellipse transform="matrix(0.5274 -0.8496 0.8496 0.5274 -11.7663 27.005)" class="st4" cx="18.4" cy="24.1" rx="0.8" ry="0.6"/>
		<ellipse transform="matrix(0.9713 -0.2377 0.2377 0.9713 -5.3695 5.2499)" class="st4" cx="19.1" cy="24.9" rx="0.6" ry="0.8"/>
		<ellipse transform="matrix(0.7008 -0.7133 0.7133 0.7008 -11.5204 21.5913)" class="st4" cx="20" cy="24.5" rx="0.8" ry="0.6"/>
		<ellipse transform="matrix(0.2974 -0.9548 0.9548 0.2974 -9.0751 20.0603)" class="st4" cx="9.1" cy="16.2" rx="0.8" ry="0.6"/>
		<ellipse transform="matrix(0.3293 -0.9442 0.9442 0.3293 -5.1748 29.7121)" class="st4" cx="18.3" cy="18.5" rx="0.5" ry="0.8"/>
		<ellipse transform="matrix(0.7514 -0.6599 0.6599 0.7514 -11.8769 19.3045)" class="st4" cx="19.7" cy="25.4" rx="0.6" ry="0.8"/>
		
			<ellipse transform="matrix(3.474128e-02 -0.9994 0.9994 3.474128e-02 -4.1761 43.7817)" class="st4" cx="20.6" cy="24.1" rx="0.5" ry="0.9"/>
		<ellipse transform="matrix(0.915 -0.4035 0.4035 0.915 -8.3901 9.1773)" class="st4" cx="17.6" cy="24.5" rx="0.8" ry="0.5"/>
		<ellipse transform="matrix(0.3722 -0.9281 0.9281 0.3722 -12.123 32.8492)" class="st4" cx="18.2" cy="25.4" rx="0.8" ry="0.6"/>
		<ellipse transform="matrix(0.3722 -0.9281 0.9281 0.3722 -2.3678 44.7093)" class="st4" cx="31.9" cy="24.1" rx="0.8" ry="0.6"/>
		<ellipse transform="matrix(0.3722 -0.9281 0.9281 0.3722 -16.3435 30.4544)" class="st4" cx="14.3" cy="27.3" rx="0.8" ry="0.6"/>
		<ellipse transform="matrix(0.3722 -0.9281 0.9281 0.3722 -16.3227 26.1611)" class="st4" cx="11.2" cy="25.1" rx="0.8" ry="0.6"/>
		<ellipse transform="matrix(0.3293 -0.9442 0.9442 0.3293 -15.6424 31.2064)" class="st4" cx="14.1" cy="26.6" rx="0.5" ry="0.8"/>
		<ellipse transform="matrix(0.9547 -0.2976 0.2976 0.9547 -6.728 4.5835)" class="st4" cx="11.7" cy="24.4" rx="0.8" ry="0.5"/>
		<ellipse transform="matrix(0.3293 -0.9442 0.9442 0.3293 -14.6979 26.2599)" class="st4" cx="11.1" cy="23.5" rx="0.5" ry="0.8"/>
		<ellipse transform="matrix(0.753 -0.6581 0.6581 0.753 -18.5605 12.5309)" class="st4" cx="7.4" cy="31" rx="0.8" ry="0.5"/>
		<ellipse transform="matrix(0.915 -0.4035 0.4035 0.915 -11.7356 5.0812)" class="st4" cx="6.2" cy="30.4" rx="0.8" ry="0.5"/>
		<ellipse transform="matrix(0.2436 -0.9699 0.9699 0.2436 -7.5572 21.5145)" class="st4" cx="10" cy="15.6" rx="0.5" ry="0.8"/>
		<ellipse transform="matrix(0.9547 -0.2976 0.2976 0.9547 -4.4452 3.1977)" class="st4" cx="8.3" cy="16.2" rx="0.8" ry="0.5"/>
		<ellipse transform="matrix(0.9547 -0.2976 0.2976 0.9547 -5.4175 10.6204)" class="st4" cx="32.2" cy="23.1" rx="0.8" ry="0.5"/>
		<ellipse transform="matrix(0.4035 -0.915 0.915 0.4035 7.348 28.8867)" class="st4" cx="25.8" cy="8.8" rx="0.5" ry="0.8"/>
		<ellipse transform="matrix(0.2974 -0.9548 0.9548 0.2974 7.3126 21.8942)" class="st4" cx="18.5" cy="6" rx="0.8" ry="0.6"/>
		
			<ellipse transform="matrix(9.441412e-02 -0.9955 0.9955 9.441412e-02 14.2712 33.86)" class="st4" cx="25.7" cy="9.1" rx="0.5" ry="0.8"/>
		<ellipse transform="matrix(0.1842 -0.9829 0.9829 0.1842 -9.3714 34.6325)" class="st4" cx="16.2" cy="23" rx="1.2" ry="0.7"/>
		<ellipse transform="matrix(0.7412 -0.6713 0.6713 0.7412 -10.3873 16.6595)" class="st4" cx="16.4" cy="21.8" rx="0.6" ry="1.2"/>
		<ellipse transform="matrix(0.9707 -0.2404 0.2404 0.9707 -6.7271 5.8419)" class="st4" cx="20.6" cy="30.5" rx="1.3" ry="0.6"/>
		<ellipse transform="matrix(0.1842 -0.9829 0.9829 0.1842 -12.3325 45.8412)" class="st4" cx="21.4" cy="30.3" rx="1.2" ry="0.7"/>
		<ellipse transform="matrix(0.6926 -0.7213 0.7213 0.6926 -11.812 30.2721)" class="st4" cx="29.6" cy="29" rx="0.3" ry="1.5"/>
		<path class="st4" d="M28.5,28.6c-0.9,0-1.6-0.1-1.6-0.3c0-0.2,0.7-0.3,1.6-0.3s1.6,0.1,1.6,0.3C30,28.5,29.3,28.6,28.5,28.6z"/>
		<ellipse transform="matrix(0.7404 -0.6722 0.6722 0.7404 -25.5952 21.3158)" class="st4" cx="14.8" cy="43.8" rx="0.3" ry="1.5"/>
		<ellipse transform="matrix(0.3148 -0.9492 0.9492 0.3148 -30.759 42.2501)" class="st4" cx="13.9" cy="42.4" rx="1.4" ry="0.3"/>
		<ellipse transform="matrix(0.263 -0.9648 0.9648 0.263 -13.2244 54.3312)" class="st4" cx="28.9" cy="35.8" rx="1.2" ry="0.7"/>
		<ellipse transform="matrix(0.9933 -0.1156 0.1156 0.9933 -3.9703 3.5212)" class="st4" cx="28.4" cy="36" rx="1.3" ry="0.6"/>
		<ellipse transform="matrix(0.8898 -0.4564 0.4564 0.8898 -16.6163 14.3451)" class="st4" cx="21.4" cy="41.6" rx="0.6" ry="1.2"/>
		<ellipse transform="matrix(0.6408 -0.7677 0.7677 0.6408 -23.5469 30.4739)" class="st4" cx="20.8" cy="40.4" rx="0.6" ry="1.2"/>
	</g>
</g>
</svg>
