<?xml version="1.0" encoding="utf-8"?>
<!-- Generator: Adobe Illustrator 27.0.0, SVG Export Plug-In . SVG Version: 6.00 Build 0)  -->
<svg version="1.1" id="Entities" xmlns="http://www.w3.org/2000/svg" xmlns:xlink="http://www.w3.org/1999/xlink" x="0px" y="0px"
	 viewBox="0 0 36.3 39.9" style="enable-background:new 0 0 36.3 39.9;" xml:space="preserve">
<style type="text/css">
	.st0{fill:#D3D5D6;}
	.st1{fill:#E0E1E2;}
	.st2{fill:#F1F2F2;}
	.st3{fill:none;stroke:#F1F2F2;stroke-width:2;stroke-miterlimit:10;}
	.st4{fill:#86888A;}
	.st5{fill:#A5A7AA;}
	.st6{fill:#C9CACC;}
</style>
<g id="sparrow_egg_copy">
	<g id="Egg_copy">
		<path class="st0" d="M18.6,0.8c-7,0.7-12,7.2-14.8,12.4c-3,5.3-3.5,11.2-1.1,16.6c2.1,5,6.7,9.7,16.4,8.7
			C33,37.1,35.3,26.9,35.4,21.3c0.1-2.2-0.3-4.4-1.2-6.5C32.2,9.8,27.1,0,18.6,0.8L18.6,0.8z"/>
		<path class="st1" d="M24.3,1.7c0,0,14.1,32.3-17.1,33.9c-0.9-0.8-7.8-4.6-5-17.9C7.5,3.3,17.5-1.2,24.3,1.7z"/>
		<path class="st2" d="M15.8,5c-1.4-0.4-3.7,1.5-4.8,2.8c-1.2,1.6-1.2,3.4-0.3,4c1.2,0.9,4.6-0.4,5.9-2.4C18,7.3,17.2,5.3,15.8,5
			L15.8,5z"/>
		<path class="st3" d="M18.3,1.1c-7,0.7-12,7.2-14.8,12.4c-2.9,5.2-3.4,11.1-1.1,16.6c2.1,5,6.7,9.7,16.4,8.7
			C32.7,37.4,35,27.2,35.2,21.6c0.1-2.2-0.3-4.4-1.2-6.5C31.9,10.1,26.8,0.2,18.3,1.1z"/>
	</g>
	<g id="egg_specks_copy_2">
		<ellipse transform="matrix(0.9021 -0.4315 0.4315 0.9021 -1.8595 11.1589)" class="st4" cx="23.7" cy="9.7" rx="1.2" ry="0.5"/>
		<ellipse transform="matrix(0.8093 -0.5875 0.5875 0.8093 -16.438 12.3702)" class="st4" cx="10.8" cy="31.5" rx="0.6" ry="1"/>
		<ellipse transform="matrix(0.4558 -0.8901 0.8901 0.4558 -10.9523 40.9921)" class="st4" cx="28" cy="29.5" rx="0.5" ry="1.2"/>
		<ellipse transform="matrix(0.6982 -0.7159 0.7159 0.6982 -1.8665 26.5057)" class="st5" cx="30.5" cy="15.5" rx="0.3" ry="1.3"/>
		<ellipse transform="matrix(0.9916 -0.1294 0.1294 0.9916 -4.5136 2.0793)" class="st5" cx="13.7" cy="35.8" rx="1.6" ry="0.2"/>
		<ellipse transform="matrix(0.603 -0.7977 0.7977 0.603 -11.1463 14.0754)" class="st5" cx="8.6" cy="18.2" rx="1.3" ry="0.3"/>
		<ellipse transform="matrix(0.5235 -0.852 0.852 0.5235 -8.1524 25.9548)" class="st6" cx="19.1" cy="20.3" rx="0.5" ry="0.7"/>
		<ellipse transform="matrix(0.9772 -0.2125 0.2125 0.9772 -5.9713 4.8008)" class="st6" cx="19.3" cy="30.2" rx="0.8" ry="0.4"/>
		<ellipse transform="matrix(0.6942 -0.7198 0.7198 0.6942 -16.1487 12.7621)" class="st6" cx="6.9" cy="25.4" rx="0.7" ry="0.5"/>
		<ellipse transform="matrix(0.2156 -0.9765 0.9765 0.2156 8.8674 29.8447)" class="st4" cx="23" cy="9.4" rx="1" ry="0.7"/>
		
			<ellipse transform="matrix(0.9997 -2.584896e-02 2.584896e-02 0.9997 -0.3821 0.7946)" class="st5" cx="30.5" cy="15.2" rx="1.6" ry="0.2"/>
		<ellipse transform="matrix(0.9213 -0.3888 0.3888 0.9213 -0.9137 7.617)" class="st6" cx="18.4" cy="6.1" rx="0.6" ry="0.7"/>
		<ellipse transform="matrix(0.3355 -0.942 0.942 0.3355 -18.209 20.1961)" class="st4" cx="5.2" cy="23" rx="0.5" ry="1.2"/>
		<ellipse transform="matrix(0.5996 -0.8003 0.8003 0.5996 -16.6039 28.0326)" class="st6" cx="19.7" cy="30.6" rx="0.5" ry="0.7"/>
		<ellipse transform="matrix(0.9934 -0.1144 0.1144 0.9934 -1.9216 3.0659)" class="st4" cx="25.7" cy="18.3" rx="1.3" ry="0.5"/>
		<ellipse transform="matrix(0.216 -0.9764 0.9764 0.216 6.154 45.9806)" class="st6" cx="31.7" cy="19.2" rx="0.4" ry="0.8"/>
		<ellipse transform="matrix(0.3922 -0.9199 0.9199 0.3922 -14.1147 29.5847)" class="st5" cx="15.3" cy="25.5" rx="0.3" ry="1.5"/>
		<ellipse transform="matrix(0.8044 -0.5941 0.5941 0.8044 -5.6269 19.1265)" class="st4" cx="26.2" cy="18.1" rx="0.6" ry="1"/>
		<ellipse transform="matrix(0.8044 -0.5941 0.5941 0.8044 -1.5914 15.5124)" class="st4" cx="22.8" cy="10.2" rx="0.6" ry="1"/>
		<ellipse transform="matrix(0.8481 -0.5298 0.5298 0.8481 -6.1847 16.4077)" class="st4" cx="25.5" cy="19" rx="1.2" ry="0.6"/>
		<ellipse transform="matrix(0.8466 -0.5323 0.5323 0.8466 -5.5303 19.7691)" class="st6" cx="31.5" cy="19.5" rx="0.7" ry="0.5"/>
		<ellipse transform="matrix(0.5235 -0.852 0.852 0.5235 -3.9572 23.0886)" class="st6" cx="18.7" cy="15.1" rx="0.5" ry="0.7"/>
		<ellipse transform="matrix(0.7478 -0.6639 0.6639 0.7478 -8.2564 18.0505)" class="st6" cx="19.6" cy="19.9" rx="0.7" ry="0.5"/>
		<ellipse transform="matrix(0.9471 -0.3208 0.3208 0.9471 -5.3557 7.2214)" class="st6" cx="19.2" cy="19.9" rx="0.8" ry="0.5"/>
		
			<ellipse transform="matrix(4.851653e-02 -0.9988 0.9988 4.851653e-02 -10.9496 40.3719)" class="st5" cx="15.7" cy="25.9" rx="0.2" ry="1.6"/>
		<ellipse transform="matrix(0.2072 -0.9783 0.9783 0.2072 -12.4824 36.4952)" class="st5" cx="16.3" cy="25.9" rx="1.2" ry="0.3"/>
		<ellipse transform="matrix(0.4625 -0.8866 0.8866 0.4625 -12.3969 25.8395)" class="st6" cx="15.1" cy="23.1" rx="0.5" ry="0.8"/>
		<ellipse transform="matrix(0.5235 -0.852 0.852 0.5235 0.9914 27.4444)" class="st6" cx="25" cy="12.8" rx="0.5" ry="0.7"/>
		
			<ellipse transform="matrix(0.9991 -4.353395e-02 4.353395e-02 0.9991 -0.5609 0.3975)" class="st6" cx="8.8" cy="13.1" rx="0.8" ry="0.4"/>
		<ellipse transform="matrix(0.4748 -0.8801 0.8801 0.4748 -0.8916 22.1715)" class="st5" cx="18.1" cy="11.8" rx="0.3" ry="1.4"/>
		<ellipse transform="matrix(0.8053 -0.5929 0.5929 0.8053 -7.8492 22.4387)" class="st5" cx="30.2" cy="23.2" rx="1.4" ry="0.3"/>
		<ellipse transform="matrix(0.9718 -0.2356 0.2356 0.9718 -3.4863 3.1753)" class="st4" cx="11.5" cy="16.2" rx="0.7" ry="1"/>
		<ellipse transform="matrix(0.9671 -0.2542 0.2542 0.9671 -3.7664 3.2152)" class="st4" cx="10.6" cy="16.2" rx="1.3" ry="0.5"/>
		<path class="st4" d="M10.3,16.7c0-0.3,0.6-0.5,1.3-0.5s1.3,0.2,1.3,0.5s-0.6,0.5-1.3,0.5S10.3,17,10.3,16.7z"/>
		<ellipse transform="matrix(0.1586 -0.9873 0.9873 0.1586 -18.6675 28.7585)" class="st6" cx="7.5" cy="25.3" rx="0.4" ry="0.8"/>
		<ellipse transform="matrix(0.8003 -0.5996 0.5996 0.8003 -13.5593 9.0902)" class="st6" cx="6.9" cy="24.9" rx="0.7" ry="0.5"/>
		<ellipse transform="matrix(0.974 -0.2265 0.2265 0.974 -6.8672 3.1143)" class="st4" cx="10.1" cy="31.5" rx="1.3" ry="0.5"/>
		<ellipse transform="matrix(0.6888 -0.725 0.725 0.6888 -19.4769 18.6255)" class="st4" cx="12" cy="32" rx="0.6" ry="1.1"/>
		<ellipse transform="matrix(0.8903 -0.4553 0.4553 0.8903 -12.8511 8.7563)" class="st4" cx="11.8" cy="31.1" rx="1.2" ry="0.5"/>
		<ellipse transform="matrix(0.49 -0.8717 0.8717 0.49 -12.1699 17.0303)" class="st5" cx="8.5" cy="18.9" rx="1.2" ry="0.3"/>
		<ellipse transform="matrix(0.9868 -0.1618 0.1618 0.9868 -2.7819 1.5849)" class="st5" cx="8.3" cy="17.9" rx="1.6" ry="0.2"/>
		<ellipse transform="matrix(0.8602 -0.51 0.51 0.8602 -8.6466 6.244)" class="st5" cx="7.1" cy="18.9" rx="1.4" ry="0.3"/>
		<ellipse transform="matrix(0.9008 -0.4343 0.4343 0.9008 -7.2884 5.2959)" class="st5" cx="7.9" cy="18.6" rx="1.5" ry="0.3"/>
		<ellipse transform="matrix(0.9418 -0.3362 0.3362 0.9418 -3.1015 9.2431)" class="st6" cx="25.1" cy="13.6" rx="0.8" ry="0.5"/>
		<ellipse transform="matrix(0.7689 -0.6393 0.6393 0.7689 -2.6043 19.486)" class="st6" cx="25.7" cy="13.3" rx="0.5" ry="0.7"/>
		<ellipse transform="matrix(0.2907 -0.9568 0.9568 0.2907 6.1156 33.6065)" class="st6" cx="25.7" cy="12.7" rx="0.5" ry="0.8"/>
		<ellipse transform="matrix(0.4882 -0.8727 0.8727 0.4882 -3.3347 33.3988)" class="st4" cx="26.8" cy="19.5" rx="0.5" ry="1.2"/>
		<ellipse transform="matrix(0.4938 -0.8696 0.8696 0.4938 -2.5176 32.786)" class="st4" cx="26.9" cy="18.6" rx="1" ry="0.6"/>
		<ellipse transform="matrix(0.9307 -0.3657 0.3657 0.9307 -7.9346 9.8477)" class="st4" cx="22" cy="25.9" rx="0.6" ry="1"/>
		<ellipse transform="matrix(0.3807 -0.9247 0.9247 0.3807 -18.1245 41.7863)" class="st4" cx="22.1" cy="34.4" rx="0.5" ry="1.2"/>
		<ellipse transform="matrix(0.5996 -0.8003 0.8003 0.5996 -12.2169 16.9729)" class="st6" cx="10.9" cy="20.7" rx="0.5" ry="0.7"/>
		<ellipse transform="matrix(0.9389 -0.3441 0.3441 0.9389 -0.3291 7.5247)" class="st5" cx="21" cy="4.7" rx="1.5" ry="0.2"/>
		<ellipse transform="matrix(0.9389 -0.3441 0.3441 0.9389 -2.6855 6.6365)" class="st5" cx="17.4" cy="10.9" rx="1.5" ry="0.2"/>
		<ellipse transform="matrix(0.2346 -0.9721 0.9721 0.2346 3.0521 26.5347)" class="st5" cx="18.4" cy="11.3" rx="0.2" ry="1.5"/>
		<ellipse transform="matrix(0.4525 -0.8918 0.8918 0.4525 -0.7531 21.3194)" class="st5" cx="17" cy="11.3" rx="1.2" ry="0.3"/>
		<ellipse transform="matrix(0.5762 -0.8173 0.8173 0.5762 -15.7248 13.9723)" class="st4" cx="5.6" cy="22.1" rx="1" ry="0.6"/>
		<ellipse class="st4" cx="6" cy="22.8" rx="1.3" ry="0.5"/>
		<ellipse transform="matrix(0.7478 -0.6639 0.6639 0.7478 -8.8048 17.329)" class="st6" cx="18.4" cy="20.3" rx="0.7" ry="0.5"/>
		<ellipse transform="matrix(0.8695 -0.494 0.494 0.8695 -7.8527 12.1913)" class="st6" cx="19.1" cy="21" rx="0.6" ry="0.7"/>
		<ellipse transform="matrix(0.8466 -0.5323 0.5323 0.8466 -7.9304 13.8432)" class="st6" cx="20" cy="20.7" rx="0.7" ry="0.5"/>
		<ellipse transform="matrix(0.5648 -0.8252 0.8252 0.5648 -7.3077 13.4619)" class="st6" cx="9.1" cy="13.7" rx="0.7" ry="0.6"/>
		<ellipse transform="matrix(0.2363 -0.9717 0.9717 0.2363 -1.1652 29.6862)" class="st6" cx="18.3" cy="15.6" rx="0.4" ry="0.8"/>
		<ellipse transform="matrix(0.5658 -0.8246 0.8246 0.5658 -9.0909 25.6208)" class="st6" cx="19.8" cy="21.4" rx="0.5" ry="0.7"/>
		
			<ellipse transform="matrix(2.477933e-02 -0.9997 0.9997 2.477933e-02 -0.3089 40.379)" class="st6" cx="20.5" cy="20.3" rx="0.4" ry="0.9"/>
		<ellipse transform="matrix(0.9568 -0.2907 0.2907 0.9568 -5.2457 6.0235)" class="st6" cx="17.7" cy="20.7" rx="0.8" ry="0.5"/>
		<ellipse transform="matrix(0.6359 -0.7717 0.7717 0.6359 -9.8508 21.8416)" class="st6" cx="18.2" cy="21.4" rx="0.7" ry="0.5"/>
		<ellipse transform="matrix(0.6359 -0.7717 0.7717 0.6359 -4.0584 32.0649)" class="st6" cx="32" cy="20.3" rx="0.7" ry="0.5"/>
		<ellipse transform="matrix(0.6359 -0.7717 0.7717 0.6359 -12.5084 19.5366)" class="st6" cx="14.5" cy="23" rx="0.7" ry="0.5"/>
		<ellipse transform="matrix(0.6359 -0.7717 0.7717 0.6359 -12.3489 16.3796)" class="st6" cx="11.2" cy="21.3" rx="0.7" ry="0.5"/>
		<ellipse transform="matrix(0.2363 -0.9717 0.9717 0.2363 -10.9089 30.9473)" class="st6" cx="14.2" cy="22.4" rx="0.4" ry="0.8"/>
		<ellipse transform="matrix(0.977 -0.2134 0.2134 0.977 -4.1244 2.9611)" class="st6" cx="11.7" cy="20.6" rx="0.8" ry="0.4"/>
		<ellipse transform="matrix(0.2363 -0.9717 0.9717 0.2363 -10.7613 26.0546)" class="st6" cx="11.2" cy="19.9" rx="0.4" ry="0.8"/>
		<ellipse transform="matrix(0.874 -0.4859 0.4859 0.874 -11.7252 6.8979)" class="st6" cx="7.4" cy="26.1" rx="0.8" ry="0.5"/>
		<ellipse transform="matrix(0.9568 -0.2907 0.2907 0.9568 -7.1617 2.9185)" class="st6" cx="6.2" cy="25.6" rx="0.8" ry="0.5"/>
		<ellipse transform="matrix(0.1743 -0.9847 0.9847 0.1743 -4.7318 20.9127)" class="st6" cx="10.1" cy="13.3" rx="0.4" ry="0.8"/>
		<ellipse transform="matrix(0.977 -0.2134 0.2134 0.977 -2.7254 2.0947)" class="st6" cx="8.3" cy="13.7" rx="0.8" ry="0.4"/>
		<ellipse transform="matrix(0.977 -0.2134 0.2134 0.977 -3.4128 7.328)" class="st6" cx="32.2" cy="19.5" rx="0.8" ry="0.4"/>
		<ellipse transform="matrix(0.2907 -0.9568 0.9568 0.2907 11.1798 30.0249)" class="st6" cx="25.8" cy="7.5" rx="0.5" ry="0.8"/>
		<ellipse transform="matrix(0.5648 -0.8252 0.8252 0.5648 3.8625 17.4741)" class="st6" cx="18.5" cy="5.1" rx="0.7" ry="0.6"/>
		
			<ellipse transform="matrix(6.736943e-02 -0.9977 0.9977 6.736943e-02 16.2727 32.8159)" class="st6" cx="25.7" cy="7.7" rx="0.4" ry="0.8"/>
		<ellipse transform="matrix(0.2668 -0.9638 0.9638 0.2668 -6.729 29.8702)" class="st4" cx="16.3" cy="19.4" rx="1" ry="0.7"/>
		<ellipse transform="matrix(0.6304 -0.7763 0.7763 0.6304 -8.1748 19.5539)" class="st4" cx="16.4" cy="18.4" rx="0.6" ry="1.1"/>
		<ellipse transform="matrix(0.9821 -0.1881 0.1881 0.9821 -4.4604 4.3411)" class="st4" cx="20.6" cy="25.7" rx="1.3" ry="0.5"/>
		<ellipse transform="matrix(0.2668 -0.9638 0.9638 0.2668 -8.8286 39.4889)" class="st4" cx="21.5" cy="25.5" rx="1" ry="0.7"/>
		<ellipse transform="matrix(0.6214 -0.7835 0.7835 0.6214 -7.8787 32.4276)" class="st5" cx="29.6" cy="24.4" rx="0.3" ry="1.4"/>
		<path class="st5" d="M28.4,24.1c-0.9,0-1.6-0.1-1.6-0.2s0.7-0.2,1.6-0.2s1.6,0.1,1.6,0.2S29.3,24.1,28.4,24.1z"/>
		<ellipse transform="matrix(0.6727 -0.7399 0.7399 0.6727 -22.3617 22.9823)" class="st5" cx="14.8" cy="36.8" rx="0.3" ry="1.4"/>
		<ellipse transform="matrix(0.3745 -0.9272 0.9272 0.3745 -24.3603 35.2203)" class="st5" cx="13.9" cy="35.7" rx="1.2" ry="0.3"/>
		<ellipse transform="matrix(0.3703 -0.9289 0.9289 0.3703 -9.714 45.9432)" class="st4" cx="29" cy="30.1" rx="1" ry="0.6"/>
		
			<ellipse transform="matrix(0.9959 -8.998932e-02 8.998932e-02 0.9959 -2.6098 2.6732)" class="st4" cx="28.3" cy="30.3" rx="1.3" ry="0.5"/>
		<ellipse transform="matrix(0.8093 -0.5875 0.5875 0.8093 -16.4833 19.2203)" class="st4" cx="21.4" cy="35" rx="0.6" ry="1"/>
		<ellipse transform="matrix(0.5298 -0.8481 0.8481 0.5298 -19.0087 33.6276)" class="st4" cx="20.8" cy="34" rx="0.6" ry="1.2"/>
	</g>
</g>
</svg>
